<svg width="89" height="81" viewBox="0 0 89 81" fill="none" xmlns="http://www.w3.org/2000/svg">
<rect width="89" height="81" rx="8" fill="#3182CE"/>
<path d="M37.4617 50.6367L32.0383 56.0601L29.022 53.1019L33.5754 48.5485C34.3778 47.7461 34.9337 46.9872 35.2431 46.2718C35.5427 45.5468 35.6201 44.8604 35.4751 44.2127C35.3301 43.5456 34.9675 42.922 34.3875 42.342C33.7301 41.6846 33.0727 41.2786 32.4153 41.1239C31.7676 40.9596 31.0909 41.0466 30.3851 41.3849C29.6891 41.7136 28.935 42.284 28.123 43.0961L25.1067 46.1123L42.8127 63.8183L38.4623 68.1687L17.3486 47.0549L24.7152 39.6883C25.9429 38.4605 27.1562 37.4793 28.355 36.7445C29.5634 36.0001 30.7428 35.5264 31.8933 35.3234C33.0437 35.1204 34.1603 35.2026 35.2431 35.5699C36.3161 35.9276 37.3457 36.5995 38.3318 37.5856C39.2019 38.4557 39.8061 39.4563 40.1445 40.5874C40.4925 41.7088 40.478 42.922 40.101 44.2272C39.7336 45.5226 38.9022 46.8664 37.6068 48.2585L37.4617 50.6367ZM46.5395 60.0915L40.1155 66.5155L38.4188 61.4256L43.1462 56.6982C43.9099 55.9345 44.4127 55.1901 44.6543 54.465C44.8864 53.7303 44.9057 53.0342 44.7123 52.3768C44.519 51.7195 44.1468 51.1152 43.5958 50.5642C42.977 49.9455 42.3341 49.5153 41.6671 49.2736C41.0097 49.0222 40.333 49.0029 39.6369 49.2156C38.9312 49.4186 38.2061 49.8923 37.4617 50.6367L33.2709 54.8275L30.3126 51.8113L35.5331 46.5909L37.7083 46.7649C38.9747 45.4598 40.2363 44.6525 41.4931 44.3432C42.7498 44.0145 43.9293 44.0435 45.0314 44.4302C46.1431 44.8072 47.1244 45.4211 47.9751 46.2718C49.3286 47.6253 50.1745 49.0609 50.5128 50.5787C50.8415 52.0868 50.6675 53.6433 49.9908 55.2481C49.3237 56.8432 48.1733 58.4577 46.5395 60.0915ZM45.3504 19.0531L66.4642 40.1668L62.1283 44.5027L41.0145 23.3889L45.3504 19.0531ZM51.8469 12.5565L55.2547 15.9643L38.0273 33.1917L34.6195 29.7839L51.8469 12.5565Z" fill="white"/>
</svg>
