<?xml version="1.0" encoding="UTF-8"?>
<svg xmlns="http://www.w3.org/2000/svg" xmlns:xlink="http://www.w3.org/1999/xlink" width="0" height="0">
<defs>
<symbol viewBox="0 0 24 24" id="sun"><path fill="currentColor" d="m6.76 4.84l-1.8-1.79l-1.41 1.41l1.79 1.79zM1 10.5h3v2H1zM11 .55h2V3.5h-2zm8.04 2.495l1.408 1.407l-1.79 1.79l-1.407-1.408zm-1.8 15.115l1.79 1.8l1.41-1.41l-1.8-1.79zM20 10.5h3v2h-3zm-8-5c-3.31 0-6 2.69-6 6s2.69 6 6 6s6-2.69 6-6s-2.69-6-6-6m0 10c-2.21 0-4-1.79-4-4s1.79-4 4-4s4 1.79 4 4s-1.79 4-4 4m-1 4h2v2.95h-2zm-7.45-.96l1.41 1.41l1.79-1.8l-1.41-1.41z"></path></symbol>
<symbol viewBox="0 0 24 24" id="moon"><path fill="currentColor" d="m17.75 4.09l-2.53 1.94l.91 3.06l-2.63-1.81l-2.63 1.81l.91-3.06l-2.53-1.94L12.44 4l1.06-3l1.06 3zm3.5 6.91l-1.64 1.25l.59 1.98l-1.7-1.17l-1.7 1.17l.59-1.98L15.75 11l2.06-.05L18.5 9l.69 1.95zm-2.28 4.95c.83-.08 1.72 1.1 1.19 1.85c-.32.45-.66.87-1.08 1.27C15.17 23 8.84 23 4.94 19.07c-3.91-3.9-3.91-10.24 0-14.14c.4-.4.82-.76 1.27-1.08c.75-.53 1.93.36 1.85 1.19c-.27 2.86.69 5.83 2.89 8.02a9.96 9.96 0 0 0 8.02 2.89m-1.64 2.02a12.08 12.08 0 0 1-7.8-3.47c-2.17-2.19-3.33-5-3.49-7.82c-2.81 3.14-2.7 7.96.31 10.98c3.02 3.01 7.84 3.12 10.98.31"></path></symbol>
<symbol viewBox="0 0 24 24" id="lock"><path fill="currentColor" d="M18 8h-1V6c0-2.76-2.24-5-5-5S7 3.24 7 6v2H6c-1.1 0-2 .9-2 2v10c0 1.1.9 2 2 2h12c1.1 0 2-.9 2-2V10c0-1.1-.9-2-2-2m-6 9c-1.1 0-2-.9-2-2s.9-2 2-2s2 .9 2 2s-.9 2-2 2M9 8V6c0-1.66 1.34-3 3-3s3 1.34 3 3v2z"></path></symbol>
<symbol viewBox="0 0 24 24" id="envelop"><path fill="currentColor" d="M20 4H4c-1.1 0-1.99.9-1.99 2L2 18c0 1.1.9 2 2 2h16c1.1 0 2-.9 2-2V6c0-1.1-.9-2-2-2m-.4 4.25l-7.07 4.42c-.32.2-.74.2-1.06 0L4.4 8.25a.85.85 0 1 1 .9-1.44L12 11l6.7-4.19a.85.85 0 1 1 .9 1.44"></path></symbol>
<symbol viewBox="0 0 24 24" id="at"><path fill="currentColor" d="M12 21.95h5v-2h-5c-4.34 0-8-3.66-8-8s3.66-8 8-8s8 3.66 8 8v1.43c0 .79-.71 1.57-1.5 1.57s-1.5-.78-1.5-1.57v-1.43c0-2.76-2.24-5-5-5s-5 2.24-5 5s2.24 5 5 5c1.38 0 2.64-.56 3.54-1.47c.65.89 1.77 1.47 2.96 1.47c1.97 0 3.5-1.6 3.5-3.57v-1.43c0-5.52-4.48-10-10-10s-10 4.48-10 10s4.48 10 10 10m0-7c-1.66 0-3-1.34-3-3s1.34-3 3-3s3 1.34 3 3s-1.34 3-3 3"></path></symbol>
</defs>
</svg>