<?xml version="1.0" standalone="no"?>
<!DOCTYPE svg PUBLIC "-//W3C//DTD SVG 20010904//EN"
 "http://www.w3.org/TR/2001/REC-SVG-20010904/DTD/svg10.dtd">
<svg version="1.0" xmlns="http://www.w3.org/2000/svg"
 width="600.000000pt" height="600.000000pt" viewBox="0 0 600.000000 600.000000"
 preserveAspectRatio="xMidYMid meet">

<g transform="translate(0.000000,600.000000) scale(0.100000,-0.100000)"
fill="#000000" stroke="none">
<path d="M2311 5914 c-146 -16 -240 -33 -417 -80 -71 -19 -143 -34 -159 -34
-20 0 -37 -11 -60 -37 -30 -35 -34 -37 -59 -25 -25 11 -30 9 -79 -35 -103 -94
-152 -156 -190 -241 -19 -44 -21 -71 -28 -382 -4 -210 -3 -339 3 -347 31 -38
126 -15 177 42 25 28 30 44 35 112 9 112 -3 169 -55 253 -61 98 -66 109 -80
163 -11 37 -11 49 -1 59 16 16 32 -5 32 -40 0 -27 29 -87 74 -150 57 -82 69
-124 68 -250 l0 -112 32 -25 c48 -36 117 -65 159 -65 l37 0 0 59 c0 72 -19
119 -60 149 -39 29 -60 77 -60 137 0 65 11 79 91 121 94 49 156 121 227 259
45 87 62 110 79 111 12 1 26 -8 33 -21 10 -19 8 -28 -12 -61 -38 -60 -49 -100
-33 -114 11 -9 18 -4 34 27 10 21 33 51 49 66 24 23 36 28 59 23 23 -5 37 -1
66 22 51 41 181 107 247 125 134 37 270 28 377 -26 58 -30 187 -132 261 -208
40 -41 52 -60 50 -79 -3 -22 -8 -25 -51 -28 -58 -4 -72 6 -133 88 -63 86 -150
177 -199 208 -73 47 -262 40 -369 -13 -16 -8 -33 -15 -38 -15 -21 0 -119 -71
-112 -82 4 -6 3 -8 -4 -4 -13 8 -76 -55 -108 -109 -13 -22 -29 -63 -36 -91 -9
-33 -25 -62 -49 -86 -35 -35 -36 -38 -48 -151 -6 -64 -8 -148 -5 -188 l7 -73
104 -143 c112 -155 131 -198 70 -159 -12 8 -43 20 -69 25 -48 11 -148 66 -148
81 0 18 26 15 59 -7 37 -25 101 -32 101 -10 0 8 -9 22 -20 32 -11 10 -33 38
-48 62 -15 23 -31 43 -36 43 -13 0 -121 -102 -119 -112 2 -4 0 -7 -5 -6 -4 1
-29 -6 -55 -16 -32 -13 -64 -37 -95 -72 -49 -55 -176 -132 -188 -113 -7 13 31
45 81 69 22 10 69 48 105 84 42 44 70 64 81 61 22 -7 155 115 138 126 -7 4
-22 3 -33 -3 -20 -11 -186 -16 -262 -9 -36 4 -50 -1 -95 -35 -84 -60 -85 -63
-27 -129 l42 -48 -47 -42 c-34 -29 -49 -52 -54 -76 -6 -35 -15 -44 -191 -189
-35 -28 -67 -62 -72 -74 -5 -13 -47 -54 -95 -91 -57 -46 -87 -77 -91 -94 -18
-86 -29 -125 -61 -206 -28 -72 -37 -110 -42 -190 -4 -55 -10 -106 -14 -112
-14 -23 12 -95 61 -171 34 -52 56 -100 68 -146 12 -48 31 -89 61 -130 23 -34
52 -81 63 -104 27 -59 140 -172 172 -172 43 0 38 11 -24 53 -60 42 -99 90 -85
104 5 4 11 3 15 -2 4 -6 29 -29 56 -53 39 -33 56 -42 87 -42 45 0 60 15 21 23
-62 13 -181 129 -168 164 6 15 11 12 34 -17 44 -57 80 -89 119 -105 46 -19 49
-19 73 5 27 27 26 60 0 60 -32 0 -81 28 -127 73 -41 39 -55 67 -33 67 6 0 23
-15 39 -33 30 -34 98 -75 119 -71 6 1 16 2 21 3 20 2 22 41 4 64 -18 23 -22
26 -53 34 -8 3 -30 23 -48 45 -25 32 -30 44 -21 54 17 21 32 17 75 -21 49 -44
77 -52 109 -31 34 23 35 83 1 115 -24 23 -114 61 -143 61 -9 0 -29 -15 -44
-33 l-27 -32 -49 53 c-41 43 -55 52 -84 52 -69 0 -76 -37 -24 -140 40 -79 44
-102 15 -75 -21 19 -26 14 -32 -35 -6 -49 -34 -35 -66 32 -81 170 -94 195
-118 228 -18 26 -24 42 -19 60 4 14 9 65 12 114 l5 88 50 48 c63 61 94 78 110
62 9 -9 6 -18 -12 -37 -21 -22 -22 -29 -12 -45 19 -32 14 -57 -17 -82 -25 -19
-30 -31 -33 -77 -3 -49 0 -56 24 -74 l27 -20 40 26 c82 55 143 45 250 -38 33
-25 63 -45 68 -45 9 1 68 123 91 190 10 31 40 71 94 127 43 46 78 87 78 92 0
17 42 51 97 76 32 16 54 33 58 47 12 37 35 57 74 64 20 3 46 13 58 20 23 15
68 93 77 135 27 124 37 164 41 168 24 24 24 -121 0 -220 -17 -70 -12 -101 14
-84 15 9 62 105 91 185 29 81 36 89 51 57 9 -19 9 -52 0 -134 -16 -160 -15
-180 14 -209 22 -22 31 -25 65 -19 59 10 67 -2 29 -41 -38 -39 -48 -41 -77
-14 -27 25 -92 70 -102 70 -4 0 -13 -20 -19 -44 -13 -52 -20 -58 -91 -85 -31
-11 -79 -35 -107 -53 -40 -26 -50 -37 -43 -48 8 -12 19 -10 76 18 75 37 164
54 164 31 0 -8 -23 -27 -51 -44 -60 -35 -113 -91 -105 -111 4 -10 -17 -26 -69
-51 -75 -38 -97 -59 -70 -69 14 -6 135 38 161 58 7 5 20 10 30 12 11 2 64 22
119 44 55 22 111 43 125 47 14 4 48 18 77 31 28 13 54 24 58 24 3 0 29 16 58
35 28 19 57 35 64 35 22 0 14 -27 -13 -45 -15 -9 -79 -68 -144 -131 -106 -103
-140 -129 -140 -106 0 4 20 30 45 57 25 28 40 51 35 53 -8 3 -64 -15 -229 -73
-11 -5 -11 -9 3 -23 20 -23 20 -39 1 -50 -30 -16 -145 -135 -145 -149 0 -31
33 -23 97 25 70 52 83 52 83 2 0 -18 -21 -46 -73 -98 -111 -112 -123 -116
-154 -42 -13 30 -28 50 -37 50 -22 0 -20 -9 11 -87 l28 -68 0 -357 c0 -232 4
-358 10 -358 6 0 19 7 29 15 25 19 36 19 36 2 0 -18 -73 -69 -128 -90 -107
-42 -225 -3 -274 92 -16 30 -26 56 -24 58 2 3 24 -15 48 -39 58 -59 159 -100
213 -88 54 12 62 25 23 40 -98 37 -175 105 -221 196 -55 109 -59 269 -10 445
34 126 37 147 23 164 -16 20 -57 15 -79 -10 -22 -24 -66 -156 -80 -240 -30
-178 -20 -416 22 -522 64 -163 244 -236 393 -160 113 57 241 191 324 337 68
119 250 534 250 568 0 11 -7 22 -15 26 -21 8 -19 26 3 26 29 0 32 10 14 38
-16 25 -16 25 11 20 20 -4 30 0 37 13 8 15 2 28 -34 68 -24 27 -52 63 -62 80
-10 17 -23 30 -29 28 -18 -6 -174 -202 -174 -220 -1 -25 26 -33 48 -13 24 22
30 20 78 -22 l41 -38 -55 -144 c-30 -80 -60 -161 -67 -180 -7 -19 -32 -72 -54
-117 -23 -46 -39 -83 -36 -83 3 0 0 -6 -6 -12 -6 -7 -29 -41 -52 -76 -39 -60
-62 -82 -75 -69 -3 4 9 28 26 54 18 26 34 57 37 69 9 35 -22 121 -60 167 -78
96 -100 209 -51 272 13 18 21 36 17 40 -4 5 -2 5 4 2 12 -7 63 49 233 258 124
152 295 335 312 335 6 0 7 6 3 13 -4 6 -3 9 1 4 5 -4 18 -1 30 7 21 14 25 13
46 -10 12 -13 27 -24 32 -24 20 0 97 72 97 91 0 17 -106 199 -116 199 -2 0
-29 -20 -60 -45 -30 -25 -58 -45 -63 -45 -15 0 -51 60 -51 86 l0 27 -66 -7
c-74 -8 -134 0 -134 18 0 8 26 12 83 12 91 0 180 18 198 40 6 8 18 14 26 14
11 0 13 -8 8 -32 l-7 -33 54 53 c29 28 61 52 71 52 9 0 30 -19 47 -41 33 -46
120 -212 120 -229 0 -7 -14 -32 -32 -56 l-32 -45 22 -22 c23 -22 23 -22 55 -3
18 11 56 33 85 49 50 27 72 51 59 63 -3 3 -15 0 -27 -6 -18 -10 -26 -8 -46 11
-13 12 -24 29 -24 37 0 7 -34 81 -77 163 -86 169 -88 144 15 216 28 20 52 40
52 44 0 20 -23 16 -101 -15 -81 -33 -91 -41 -103 -78 -7 -24 -85 -78 -112 -78
-27 0 -44 26 -44 68 0 33 25 60 66 71 50 13 35 26 -57 48 -112 27 -199 77
-299 171 -86 79 -91 107 -11 57 30 -19 57 -33 59 -30 2 2 11 -2 18 -10 21 -20
159 -63 244 -75 41 -6 107 -8 145 -5 85 8 185 34 185 48 0 6 3 7 6 4 15 -14
109 51 169 116 99 106 141 237 133 416 l-4 94 35 15 c52 21 151 11 231 -24 71
-31 98 -51 84 -63 -5 -4 -31 -16 -57 -25 -28 -11 -65 -36 -88 -59 -47 -50
-144 -195 -136 -204 9 -9 34 14 59 56 42 71 90 122 137 146 43 22 152 55 181
55 6 0 37 -24 68 -54 63 -59 90 -76 122 -76 14 0 46 -24 85 -62 34 -35 87 -86
117 -114 37 -35 57 -62 62 -85 17 -88 27 -111 44 -104 9 3 13 3 9 -1 -4 -4 20
-21 54 -37 74 -35 215 -171 247 -238 15 -31 22 -64 22 -106 0 -65 0 -64 93
-184 55 -71 59 -89 19 -89 -31 0 -78 30 -140 89 -55 52 -88 54 -138 8 -30 -28
-37 -42 -41 -83 -6 -55 11 -84 49 -84 11 0 47 -28 84 -64 35 -35 64 -61 64
-58 0 4 5 -1 11 -10 12 -22 33 -23 53 -2 30 29 19 59 -46 122 -49 47 -60 64
-51 73 13 13 46 -3 96 -50 44 -40 57 -74 57 -146 0 -37 5 -75 10 -86 15 -27
55 -24 85 8 l25 28 0 -28 c0 -21 -8 -33 -36 -49 l-36 -21 24 -24 c20 -20 29
-22 50 -14 33 12 42 40 41 118 -3 135 -52 256 -163 403 -65 86 -70 95 -70 143
-1 73 -20 117 -79 185 -37 43 -51 68 -51 90 0 33 -10 44 -58 60 -53 18 -91 53
-157 147 -59 84 -268 295 -291 295 -24 0 -101 48 -129 80 -32 36 -104 82 -117
74 -7 -4 -8 -3 -4 5 8 12 -49 41 -80 41 -10 0 -47 19 -83 43 l-65 42 -108 0
-107 0 -17 70 c-10 39 -27 103 -40 143 l-22 74 34 45 c47 61 44 85 -11 99 -39
9 -139 58 -172 84 -14 11 -30 17 -36 13 -5 -3 -7 -2 -4 3 3 6 -17 32 -45 59
-27 28 -89 101 -137 164 -113 150 -201 207 -231 151 -9 -17 -21 -20 -82 -20
-65 0 -75 3 -103 28 l-30 29 -124 -13z m179 -103 c0 -9 7 -25 15 -35 26 -34
19 -61 -22 -80 -41 -20 -42 -20 -157 -42 -120 -24 -285 -16 -351 17 -29 14
-51 32 -54 43 -3 21 -6 21 94 -15 79 -28 174 -22 261 16 50 21 72 40 114 91
l53 65 23 -22 c13 -12 24 -30 24 -38z m-631 -177 c32 -40 27 -77 -14 -113 -35
-30 -45 -33 -115 -35 -40 -1 -37 9 -39 -153 -1 -81 -4 -103 -15 -103 -11 0
-15 22 -19 93 -3 50 -4 114 -4 142 2 49 1 50 -45 80 -43 27 -63 55 -39 55 5 0
43 -16 86 -35 89 -41 136 -46 165 -20 24 21 26 57 5 75 -8 7 -15 19 -15 26 0
23 27 16 49 -12z m-58 -48 c-12 -31 -39 -32 -53 -1 -15 33 3 49 38 33 18 -8
21 -15 15 -32z m93 -132 c22 -21 20 -33 -10 -79 -37 -56 -85 -105 -103 -105
-19 0 -51 29 -51 48 0 8 17 34 38 56 20 23 47 54 59 69 26 31 45 34 67 11z
m1202 -213 c85 -57 154 -154 191 -270 24 -76 29 -259 9 -330 -30 -106 -57
-154 -125 -222 -50 -49 -83 -72 -136 -95 -67 -28 -76 -29 -230 -29 -154 0
-162 1 -215 27 -90 45 -105 63 -76 87 12 10 24 5 60 -23 46 -34 150 -75 162
-63 10 10 -6 27 -27 27 -30 0 -81 29 -111 64 -15 17 -27 34 -28 38 0 3 14 20
30 36 67 67 11 127 -81 88 -20 -9 -41 39 -63 147 -26 123 -23 136 34 192 l49
48 21 -49 c12 -27 27 -52 33 -56 23 -15 66 -8 94 16 41 35 39 91 -5 141 l-33
37 27 29 c54 57 199 118 317 134 53 7 64 25 15 25 -107 -1 -292 -75 -348 -140
-16 -19 -50 -19 -50 -1 0 25 131 110 215 140 51 18 134 35 196 40 9 0 43 -17
75 -38z m-1446 -171 c20 -38 -19 -77 -48 -48 -13 13 -16 50 -5 61 13 14 43 6
53 -13z m860 -65 c11 -13 8 -22 -23 -53 -82 -86 -97 -105 -97 -128 0 -45 31
-178 57 -243 25 -62 24 -89 -3 -98 -23 -7 -104 242 -104 320 0 51 30 107 91
167 55 55 61 57 79 35z m-865 -839 c50 -47 93 -85 98 -86 12 0 8 25 -8 46 -16
21 -20 44 -7 44 4 0 42 -34 84 -76 81 -80 110 -91 116 -44 2 17 -11 45 -38 84
-28 39 -38 62 -31 69 16 16 36 2 87 -67 68 -91 90 -134 76 -148 -8 -8 -15 -8
-24 0 -9 7 -19 7 -28 2 -13 -8 -13 -13 2 -37 12 -20 14 -33 7 -46 -10 -18 -39
-24 -39 -8 0 16 -62 49 -81 44 -11 -3 -19 -8 -19 -11 0 -2 18 -25 40 -49 23
-24 38 -48 35 -53 -4 -6 -33 -24 -66 -40 -41 -21 -67 -42 -84 -70 -14 -23 -54
-71 -89 -109 -46 -50 -69 -86 -86 -132 -23 -65 -61 -132 -80 -144 -17 -10 -59
22 -76 59 -15 31 -15 34 11 72 34 50 28 85 -24 139 -21 22 -53 62 -71 88 -17
27 -38 51 -46 54 -18 7 -18 32 1 39 8 3 24 -1 37 -10 30 -21 45 -20 58 4 14
25 -19 57 -75 71 -115 30 -146 41 -155 59 -13 24 -4 25 43 5 20 -8 50 -15 67
-15 51 0 95 -25 165 -94 70 -69 73 -70 92 -58 16 10 -2 92 -30 133 -12 18 -47
53 -77 77 -51 42 -73 72 -53 72 4 0 33 -21 63 -46 63 -52 186 -124 213 -124
10 0 37 10 60 21 l42 22 -43 37 c-23 21 -63 47 -87 57 -66 27 -60 47 11 38 45
-5 55 -4 51 7 -2 7 -9 12 -15 11 -6 -2 -9 3 -6 10 2 7 -31 50 -75 97 -43 46
-76 90 -74 97 7 19 28 4 128 -91z m905 -1011 c11 -13 11 -20 0 -40 -15 -27
-30 -31 -48 -13 -13 13 -16 50 -5 61 11 12 40 7 53 -8z m-415 -627 c12 -35
-38 -68 -51 -33 -4 8 -3 26 0 39 7 29 42 25 51 -6z"/>
<path d="M3237 4883 c-4 -3 -7 -20 -7 -37 0 -55 -17 -90 -73 -148 -66 -69 -89
-132 -64 -172 14 -21 83 -55 91 -44 2 1 20 37 40 78 42 86 52 146 41 254 -6
71 -12 85 -28 69z"/>
<path d="M3695 4661 c-43 -53 -58 -82 -67 -123 -6 -30 -8 -63 -4 -74 7 -18 9
-17 30 9 22 27 46 36 46 17 0 -15 -49 -90 -81 -125 -32 -34 -36 -45 -15 -45
16 0 17 1 90 79 43 47 76 61 76 32 0 -14 -78 -103 -111 -126 -29 -20 -35 -45
-12 -52 6 -2 28 10 48 28 52 46 65 25 20 -34 -42 -54 -43 -61 -11 -53 16 4 28
1 33 -7 4 -8 32 -31 61 -51 56 -41 63 -60 32 -93 -24 -27 -42 -23 -164 40 -49
25 -94 43 -99 40 -6 -3 -7 -2 -4 4 9 14 -74 46 -87 33 -13 -13 -18 -9 114 -83
181 -101 237 -127 298 -138 53 -10 63 -17 137 -89 72 -71 124 -107 148 -101 5
1 5 -3 2 -9 -9 -14 27 -54 74 -82 36 -23 104 -39 119 -29 12 8 24 101 13 101
-4 0 -16 -9 -26 -20 -10 -11 -24 -20 -32 -20 -19 0 -16 27 4 38 9 5 24 25 32
43 9 18 32 44 51 56 78 52 86 66 45 85 -46 21 -26 59 38 73 34 7 34 38 -1 43
-12 2 -27 12 -32 23 -18 32 -189 158 -225 165 -18 3 -47 3 -64 -1 -40 -9 -40
7 0 52 23 27 28 38 19 47 -15 14 -150 -126 -182 -187 -20 -40 -114 -147 -128
-147 -24 0 -12 33 26 73 24 25 62 84 85 129 23 46 59 107 81 136 28 37 37 59
33 73 -7 20 -103 120 -142 146 -30 20 -56 4 -94 -55 -27 -43 -35 -66 -53 -144
-4 -16 -13 -28 -21 -28 -41 0 10 155 72 221 23 25 40 49 36 52 -12 12 -34 7
-64 -14 -17 -12 -40 -19 -56 -17 -31 3 -32 7 -18 116 5 43 4 62 -3 62 -6 0
-36 -31 -67 -69z"/>
<path d="M3404 4443 c-46 -74 -91 -137 -133 -184 -78 -88 -74 -114 14 -84 34
11 51 12 60 5 16 -13 125 -225 159 -309 14 -36 26 -79 26 -96 0 -30 -4 -34
-59 -54 -32 -11 -61 -21 -64 -21 -4 0 -31 -9 -62 -21 -40 -15 -55 -25 -55 -40
0 -10 6 -19 14 -19 24 0 200 61 239 83 31 17 37 26 37 54 0 38 12 42 34 11 22
-30 22 -30 -25 -84 -22 -25 -38 -52 -36 -58 8 -20 -37 -100 -60 -111 -30 -13
-29 -21 4 -42 54 -35 107 -93 96 -104 -8 -8 -25 -2 -60 22 -26 18 -50 36 -53
39 -3 4 -15 12 -26 18 -30 16 -49 -7 -39 -45 16 -63 0 -135 -55 -242 -53 -106
-73 -109 -54 -8 17 88 17 87 1 87 -9 0 -22 -44 -40 -136 -37 -188 -28 -198 57
-64 69 107 91 120 65 39 -31 -95 -103 -203 -189 -282 l-62 -58 12 -49 12 -50
30 18 c112 64 290 289 263 332 -3 6 -1 9 6 8 18 -5 58 142 59 219 0 78 13 87
78 54 44 -23 134 -115 289 -299 127 -149 150 -185 200 -308 47 -115 67 -149
130 -214 60 -62 77 -105 63 -164 -5 -22 -7 -44 -4 -48 3 -4 0 -8 -6 -8 -7 0
-10 -13 -8 -32 2 -26 10 -37 38 -50 39 -20 70 -54 101 -113 16 -30 23 -68 29
-156 6 -104 10 -122 37 -170 17 -30 38 -77 47 -105 9 -29 31 -73 47 -98 36
-53 184 -196 205 -196 8 0 14 -4 14 -8 0 -5 19 -19 43 -32 118 -65 157 -114
157 -196 0 -66 -56 -146 -128 -180 -75 -35 -225 -35 -261 0 -20 21 -7 32 22
19 33 -15 52 -2 38 25 -14 26 -14 32 -1 32 6 0 15 -12 21 -27 13 -35 29 -54
40 -47 5 2 0 27 -11 55 -22 55 -24 69 -11 69 4 0 20 -27 34 -60 23 -53 47 -78
47 -50 0 9 -22 65 -41 101 -8 16 -3 29 11 29 4 0 17 -24 30 -52 30 -66 27 -61
39 -54 11 7 -6 55 -24 68 -5 4 -6 8 -1 8 4 0 1 11 -8 25 -9 13 -16 29 -16 35
0 23 20 7 50 -41 44 -68 63 -50 20 20 -18 28 -36 51 -41 51 -5 0 -9 5 -9 10 0
21 29 9 53 -21 13 -17 31 -29 38 -27 9 3 -6 25 -45 66 -33 34 -63 62 -67 62
-4 0 -40 -38 -80 -85 -53 -63 -77 -85 -95 -85 -13 0 -24 3 -24 6 0 3 30 39 68
79 77 84 122 159 105 176 -8 8 -16 7 -31 -2 -17 -11 -25 -8 -63 25 l-43 37
-61 -66 c-55 -60 -95 -83 -95 -52 0 6 22 35 49 64 66 70 105 122 97 130 -3 3
-15 -2 -25 -11 -19 -17 -21 -17 -53 7 -79 60 -128 35 -128 -65 0 -26 -8 -55
-20 -73 -11 -16 -20 -37 -20 -45 0 -8 -14 -24 -30 -35 -33 -22 -37 -37 -15
-55 12 -10 20 -9 40 4 13 9 26 16 29 16 9 0 53 -45 71 -73 17 -26 17 -28 0
-47 -12 -13 -31 -20 -55 -20 -44 0 -95 34 -186 124 -56 56 -62 65 -67 114 -4
35 -16 68 -37 98 -34 51 -38 74 -12 74 26 0 212 95 252 129 39 32 35 53 -5 27
-41 -27 -48 -8 -12 34 39 46 63 88 55 96 -4 3 -39 -10 -80 -29 -76 -37 -185
-63 -218 -52 -33 10 -24 35 13 36 86 2 149 33 221 108 36 39 64 60 73 57 11
-4 14 1 11 21 -4 35 -23 40 -45 13 -10 -12 -40 -43 -66 -69 -82 -79 -131 -90
-179 -39 -29 31 -31 32 -44 13 -8 -10 -14 -28 -14 -39 0 -37 -16 -48 -79 -53
-33 -3 -61 -4 -61 -1 0 7 319 323 330 326 10 4 14 32 5 32 -5 0 -119 -77 -160
-107 -6 -5 -15 -9 -20 -10 -6 -2 -53 -20 -105 -41 -120 -49 -189 -67 -203 -53
-16 16 0 26 83 51 111 33 200 76 243 118 54 52 66 79 60 134 -4 35 -1 51 11
63 16 16 14 35 -4 35 -5 0 -39 -30 -77 -66 -37 -37 -86 -79 -107 -95 -62 -46
-106 -34 -49 14 113 94 169 161 157 191 -4 10 11 35 41 70 26 30 44 60 40 66
-4 7 -21 -5 -43 -32 -62 -76 -191 -193 -249 -229 -81 -49 -145 -47 -267 7 -49
22 -92 46 -94 53 -3 10 2 12 19 8 150 -33 190 -39 255 -35 67 3 76 6 108 37
36 35 56 94 56 166 0 18 7 61 16 94 19 76 14 84 -93 162 -52 37 -79 63 -81 78
-3 17 -9 22 -22 18 -10 -2 -31 4 -47 14 -15 10 -35 19 -44 19 -8 0 -23 6 -33
13 -18 13 -15 18 33 85 29 40 58 72 64 72 6 0 28 -17 49 -37 27 -26 41 -34 49
-26 7 7 -4 22 -38 52 -26 22 -53 41 -59 41 -6 0 -26 -17 -45 -37 -19 -21 -94
-97 -167 -169 -138 -137 -139 -140 -112 -197 16 -34 7 -45 -46 -58 -59 -13
-114 -11 -114 4 0 8 18 38 40 68 53 72 66 97 54 109 -10 10 -25 3 -103 -49
l-51 -34 0 -82 c0 -121 18 -148 232 -367 76 -78 106 -117 138 -180 22 -44 40
-88 40 -97 0 -27 30 -61 54 -61 23 0 51 -26 99 -92 15 -20 37 -38 49 -40 17
-2 32 -22 60 -79 35 -70 69 -113 146 -181 36 -32 92 -140 92 -177 0 -62 22
-105 84 -164 73 -69 128 -108 256 -175 164 -86 316 -107 420 -59 76 35 145
116 161 187 20 89 -27 162 -171 268 -115 84 -219 180 -257 237 -18 29 -43 84
-54 125 -12 40 -32 93 -45 118 -14 27 -24 62 -24 87 0 74 -20 154 -58 228 -33
64 -37 81 -39 154 -1 45 -7 93 -14 105 -7 13 -47 60 -90 104 -43 45 -81 94
-85 110 -4 16 -15 45 -26 64 -10 19 -30 73 -44 120 -25 80 -70 175 -119 247
-51 77 -347 413 -357 407 -7 -5 -8 -2 -3 5 4 8 -7 27 -30 51 -32 33 -35 41
-26 59 7 12 15 21 20 21 4 0 26 25 48 55 27 36 43 69 48 101 10 71 -6 98 -86
143 -38 21 -67 40 -64 43 8 8 -73 190 -88 200 -6 4 -9 8 -5 8 3 0 -9 32 -28
71 -33 68 -36 71 -64 65 -39 -7 -38 3 9 72 42 62 81 135 81 152 0 19 -20 10
-36 -17z"/>
<path d="M1705 3303 c4 -98 9 -181 12 -186 7 -11 80 -47 98 -47 19 0 20 34 0
50 -11 10 -15 36 -15 112 0 96 -9 135 -35 150 -7 4 -16 28 -19 53 -6 37 -11
45 -28 45 -20 0 -20 -3 -13 -177z"/>
<path d="M2845 3397 c-53 -54 -69 -87 -41 -87 13 0 41 25 99 87 24 26 26 31
13 42 -13 11 -24 4 -71 -42z"/>
<path d="M2694 3383 c-4 -15 -18 -36 -31 -46 -13 -10 -23 -24 -23 -31 0 -6 20
-32 45 -56 25 -24 45 -50 45 -57 0 -6 -9 -28 -21 -47 -16 -28 -18 -38 -9 -53
10 -15 7 -30 -14 -77 -31 -71 -32 -95 -6 -129 37 -47 77 -69 100 -57 11 6 20
16 20 23 0 7 13 40 30 74 34 73 45 74 88 4 181 -293 174 -635 -15 -791 -67
-55 -100 -74 -182 -100 -70 -22 -161 -26 -210 -9 -37 13 -48 44 -32 90 16 47
14 84 -11 142 -21 51 -34 67 -52 67 -5 0 -43 -36 -83 -79 -60 -65 -81 -81
-112 -86 -22 -4 -57 -22 -82 -43 -25 -20 -56 -44 -69 -53 l-23 -15 44 -26 c62
-36 173 -74 271 -93 95 -19 289 -21 350 -4 46 12 58 4 58 -41 0 -14 7 -56 15
-95 21 -105 7 -148 -92 -276 -24 -30 -43 -59 -43 -64 0 -5 8 -17 17 -27 33
-37 22 -104 -32 -204 -45 -83 -50 -98 -66 -213 -9 -69 -15 -139 -14 -156 1
-17 19 -55 39 -85 l38 -55 -6 -90 c-18 -237 -36 -320 -88 -400 -17 -27 -31
-54 -30 -58 1 -5 -2 -6 -7 -3 -5 3 -19 -2 -32 -13 -53 -40 -208 -55 -254 -25
-31 20 -34 48 -5 39 16 -5 20 -2 20 19 0 14 5 28 11 32 14 8 29 -14 29 -43 0
-13 5 -23 11 -23 7 0 10 19 7 52 -2 44 0 53 15 56 14 3 17 -4 17 -52 0 -30 4
-57 9 -61 17 -10 19 8 9 79 -6 48 -6 72 2 80 17 17 27 -7 35 -80 4 -35 11 -64
16 -64 13 0 11 25 -6 95 -8 33 -14 68 -15 78 0 28 29 20 36 -10 20 -89 26
-105 36 -95 7 7 5 27 -6 65 -9 30 -16 58 -16 61 0 14 30 5 39 -11 5 -10 13
-15 16 -11 10 9 -10 63 -22 61 -48 -10 -62 -10 -66 0 -2 7 -41 14 -103 18 -65
4 -111 12 -133 23 -52 28 -25 40 47 22 73 -19 95 -20 147 -2 76 26 118 93 101
161 -6 24 -9 25 -96 25 -98 0 -140 11 -140 36 0 12 6 15 23 9 12 -3 76 -9 142
-11 125 -5 170 4 170 36 0 11 -12 15 -47 13 -47 -1 -48 0 -48 28 0 34 -16 39
-100 36 -66 -2 -113 9 -107 26 3 9 31 11 99 8 102 -3 138 3 138 23 0 7 9 25
21 40 24 30 20 31 -41 10 -42 -15 -177 -17 -190 -4 -3 3 -27 14 -54 25 -66 27
-73 47 -13 39 28 -4 47 -2 51 5 4 6 29 11 55 11 47 0 93 21 78 36 -4 4 -28 7
-52 5 -40 -2 -49 2 -93 43 -27 25 -65 53 -85 61 -21 8 -37 21 -37 28 0 9 25
12 105 9 108 -4 223 15 262 43 31 23 10 25 -53 6 -33 -11 -81 -22 -107 -26
-39 -6 -47 -5 -47 9 0 9 6 16 14 16 7 0 30 7 50 15 33 14 35 17 24 36 -16 25
-2 35 85 62 31 10 57 21 57 25 0 17 -24 31 -39 23 -56 -30 -193 -16 -259 26
-51 33 -112 96 -112 116 0 11 -19 36 -41 55 -43 37 -78 100 -79 140 0 17 6 22
25 22 14 0 24 -3 24 -7 -9 -55 34 -119 102 -154 107 -54 301 -63 427 -19 34
12 62 26 62 31 0 13 -23 11 -63 -6 -84 -35 -100 -5 -42 76 19 27 35 52 35 57
0 4 -13 13 -29 20 -35 16 -55 64 -49 123 3 38 3 39 -32 44 -100 15 -253 59
-316 90 -40 19 -73 35 -75 35 -2 0 -5 -30 -6 -68 0 -37 -2 -75 -2 -84 -1 -10
-24 -39 -51 -65 l-50 -47 2 -271 3 -270 48 -14 47 -15 0 -68 c0 -74 8 -87 68
-120 l32 -17 0 -108 c0 -70 -7 -136 -19 -188 -10 -44 -19 -98 -20 -119 0 -22
-8 -64 -17 -95 -10 -33 -17 -92 -18 -141 0 -76 3 -91 27 -133 52 -89 143 -123
280 -105 75 10 125 37 175 93 67 76 95 196 109 465 l6 125 -32 62 c-30 56 -32
67 -27 125 15 158 17 167 52 211 59 72 76 122 73 208 l-3 77 47 53 c26 29 57
73 69 97 l21 44 -22 112 c-12 61 -21 134 -21 161 l1 50 60 35 c169 96 286 329
264 525 -6 62 -53 238 -80 302 -34 80 -135 225 -217 310 -40 42 -49 58 -46 78
4 20 1 25 -14 25 -10 0 -30 11 -43 24 -21 21 -23 30 -18 85 5 52 3 61 -10 61
-10 0 -20 -12 -23 -27z"/>
<path d="M3036 3293 c-35 -56 -36 -60 -36 -160 l0 -103 33 13 c17 8 58 27 90
42 67 33 67 31 13 148 -18 40 -36 82 -40 95 -4 12 -11 22 -16 22 -5 0 -25 -26
-44 -57z m53 -37 c6 -7 10 -24 9 -38 -2 -20 -6 -24 -25 -20 -27 5 -39 37 -23
57 15 19 24 19 39 1z m31 -101 c15 -18 6 -45 -15 -45 -18 0 -30 24 -21 45 7
19 20 19 36 0z"/>
<path d="M1852 2968 c-6 -6 -12 -26 -12 -43 0 -18 -12 -47 -29 -71 -48 -65
-48 -81 -5 -125 20 -21 42 -35 47 -32 6 3 7 1 3 -5 -7 -12 70 -62 97 -62 24 0
47 28 47 59 0 34 -17 51 -50 51 -37 0 -54 36 -47 97 7 59 1 91 -21 121 -14 18
-20 20 -30 10z"/>
<path d="M2925 2625 c-86 -49 -98 -84 -100 -275 0 -80 -4 -166 -9 -193 -7 -41
-6 -46 7 -41 31 12 40 71 33 212 -6 124 -5 136 14 167 16 26 34 38 85 55 68
22 69 25 49 93 -7 23 -9 22 -79 -18z"/>
</g>
</svg>
