<svg width="341" height="70" viewBox="0 0 341 70" fill="none" xmlns="http://www.w3.org/2000/svg">
<rect x="3.38248" y="11.3823" width="3.38249" height="3.3825" fill="#74B5CD"/>
<rect x="3.38248" y="48.5901" width="3.38249" height="6.765" fill="#74B5CD"/>
<rect x="40.59" y="48.5901" width="3.38249" height="6.765" fill="#74B5CD"/>
<rect y="14.7651" width="3.38249" height="33.825" fill="#74B5CD"/>
<rect x="43.9725" y="14.7651" width="3.38249" height="33.825" fill="#74B5CD"/>
<rect x="54.12" y="21.5303" width="3.38249" height="27.06" fill="#74B5CD"/>
<rect x="47.355" y="24.9124" width="3.38249" height="16.9125" fill="#74B5CD"/>
<rect x="40.59" y="11.3823" width="3.38249" height="3.3825" fill="#74B5CD"/>
<rect x="50.7375" y="45.2075" width="3.38249" height="3.3825" fill="#74B5CD"/>
<rect x="47.355" y="18.1472" width="6.76499" height="3.3825" fill="#74B5CD"/>
<rect x="43.9725" y="48.5901" width="10.1475" height="3.3825" fill="#74B5CD"/>
<rect x="37.2075" y="55.3552" width="3.38249" height="3.3825" fill="#74B5CD"/>
<rect x="6.76498" y="55.3552" width="3.38249" height="3.3825" fill="#74B5CD"/>
<rect x="10.1475" y="14.7651" width="27.0599" height="3.3825" fill="#74B5CD"/>
<rect x="10.1475" y="24.9124" width="27.0599" height="3.3825" fill="#74B5CD"/>
<rect x="6.76498" y="18.1472" width="33.8249" height="6.765" fill="#74B5CD"/>
<rect x="6.76498" y="8" width="33.8249" height="3.3825" fill="#74B5CD"/>
<rect x="6.76498" y="58.7375" width="33.8249" height="3.3825" fill="#74B5CD"/>
<path d="M90.081 54V15.31H101.953C105.698 15.31 108.666 16.211 110.857 18.013C113.048 19.7797 114.143 22.2 114.143 25.274C114.143 27.0053 113.754 28.507 112.977 29.779C112.2 31.051 111.14 32.0403 109.797 32.747C108.49 33.4537 106.97 33.807 105.239 33.807V33.595C107.112 33.5597 108.772 33.913 110.221 34.655C111.705 35.3617 112.871 36.4217 113.719 37.835C114.602 39.2483 115.044 40.962 115.044 42.976C115.044 45.202 114.532 47.1453 113.507 48.806C112.482 50.4667 111.034 51.7563 109.161 52.675C107.324 53.5583 105.115 54 102.536 54H90.081ZM96.547 48.488H102.112C104.055 48.488 105.575 47.9757 106.67 46.951C107.801 45.891 108.366 44.46 108.366 42.658C108.366 40.856 107.801 39.4073 106.67 38.312C105.575 37.1813 104.055 36.616 102.112 36.616H96.547V48.488ZM96.547 31.263H101.847C103.614 31.263 104.992 30.8037 105.981 29.885C107.006 28.931 107.518 27.6413 107.518 26.016C107.518 24.3907 107.006 23.1187 105.981 22.2C104.992 21.2813 103.614 20.822 101.847 20.822H96.547V31.263ZM121.807 54V47.958H131.983V30.839H123.132V24.85H138.343V47.958H147.353V54H121.807ZM134.633 19.974C133.291 19.974 132.231 19.6383 131.453 18.967C130.676 18.2603 130.287 17.324 130.287 16.158C130.287 14.992 130.676 14.0733 131.453 13.402C132.231 12.6953 133.291 12.342 134.633 12.342C135.976 12.342 137.036 12.6953 137.813 13.402C138.591 14.0733 138.979 14.992 138.979 16.158C138.979 17.324 138.591 18.2603 137.813 18.967C137.036 19.6383 135.976 19.974 134.633 19.974ZM168.639 54C165.847 54 163.657 53.2227 162.067 51.668C160.512 50.1133 159.735 47.9757 159.735 45.255V30.839H151.838V24.85H159.735V16.635H166.413V24.85H177.596V30.839H166.413V45.255C166.413 47.0923 167.314 48.011 169.116 48.011H177.066V54H168.639ZM193.899 54V21.458H183.776V15.31H210.7V21.458H200.577V54H193.899ZM218.099 54V24.85H224.353V30.415H225.996L224.035 33.807C224.035 30.6623 224.742 28.295 226.155 26.705C227.569 25.115 229.653 24.32 232.409 24.32C235.554 24.32 238.027 25.2917 239.829 27.235C241.631 29.1783 242.532 31.8637 242.532 35.291V37.411H235.589V35.768C235.589 33.8953 235.095 32.4467 234.105 31.422C233.151 30.3973 231.826 29.885 230.13 29.885C228.399 29.885 227.056 30.3973 226.102 31.422C225.184 32.4467 224.724 33.8953 224.724 35.768V54H218.099ZM260.796 54.477C258.323 54.477 256.168 54.0177 254.33 53.099C252.528 52.145 251.115 50.82 250.09 49.124C249.101 47.3927 248.606 45.361 248.606 43.029V35.821C248.606 33.489 249.101 31.475 250.09 29.779C251.115 28.0477 252.528 26.7227 254.33 25.804C256.168 24.85 258.323 24.373 260.796 24.373C263.305 24.373 265.46 24.85 267.262 25.804C269.064 26.7227 270.46 28.0477 271.449 29.779C272.474 31.475 272.986 33.4713 272.986 35.768V43.029C272.986 45.361 272.474 47.3927 271.449 49.124C270.46 50.82 269.064 52.145 267.262 53.099C265.46 54.0177 263.305 54.477 260.796 54.477ZM260.796 48.7C262.563 48.7 263.923 48.223 264.877 47.269C265.867 46.2797 266.361 44.8663 266.361 43.029V35.821C266.361 33.9483 265.867 32.535 264.877 31.581C263.923 30.627 262.563 30.15 260.796 30.15C259.065 30.15 257.705 30.627 256.715 31.581C255.726 32.535 255.231 33.9483 255.231 35.821V43.029C255.231 44.8663 255.726 46.2797 256.715 47.269C257.705 48.223 259.065 48.7 260.796 48.7ZM288.336 54L278.743 24.85H285.527L291.092 42.552C291.41 43.612 291.71 44.7073 291.993 45.838C292.311 46.9687 292.54 47.8697 292.682 48.541C292.858 47.8697 293.088 46.9687 293.371 45.838C293.653 44.7073 293.936 43.6297 294.219 42.605L299.678 24.85H306.409L296.869 54H288.336ZM324.408 54.53C321.935 54.53 319.779 54.053 317.942 53.099C316.105 52.145 314.674 50.82 313.649 49.124C312.66 47.3927 312.165 45.3787 312.165 43.082V35.768C312.165 33.4713 312.66 31.475 313.649 29.779C314.674 28.0477 316.105 26.705 317.942 25.751C319.779 24.797 321.935 24.32 324.408 24.32C326.846 24.32 328.966 24.797 330.768 25.751C332.605 26.705 334.019 28.0477 335.008 29.779C336.033 31.475 336.545 33.4713 336.545 35.768V41.015H318.578V43.082C318.578 45.1313 319.073 46.686 320.062 47.746C321.051 48.7707 322.518 49.283 324.461 49.283C325.945 49.283 327.146 49.0357 328.065 48.541C328.984 48.011 329.567 47.2513 329.814 46.262H336.333C335.838 48.7707 334.496 50.7847 332.305 52.304C330.15 53.788 327.517 54.53 324.408 54.53ZM330.132 37.305V35.715C330.132 33.701 329.655 32.164 328.701 31.104C327.747 30.0087 326.316 29.461 324.408 29.461C322.5 29.461 321.051 30.0087 320.062 31.104C319.073 32.1993 318.578 33.754 318.578 35.768V36.881L330.609 36.775L330.132 37.305Z" fill="#74B5CD"/>
<line x1="73.5" y1="4" x2="73.5" y2="66" stroke="#74B5CD" stroke-width="3"/>
</svg>
