<svg width="199" height="62" viewBox="0 0 199 62" fill="none" xmlns="http://www.w3.org/2000/svg">
<path d="M14.3555 25.8955H6.68555L6.64453 21.6709H13.084C14.2188 21.6709 15.1484 21.5273 15.873 21.2402C16.5977 20.9395 17.1377 20.5088 17.4932 19.9482C17.8623 19.374 18.0469 18.6768 18.0469 17.8564C18.0469 16.9268 17.8691 16.1748 17.5137 15.6006C17.1719 15.0264 16.6318 14.6094 15.8936 14.3496C15.1689 14.0898 14.2324 13.96 13.084 13.96H8.81836V39H2.66602V9.14062H13.084C14.8203 9.14062 16.3721 9.30469 17.7393 9.63281C19.1201 9.96094 20.2891 10.46 21.2461 11.1299C22.2031 11.7998 22.9346 12.6475 23.4404 13.6729C23.9463 14.6846 24.1992 15.8877 24.1992 17.2822C24.1992 18.5127 23.9189 19.6475 23.3584 20.6865C22.8115 21.7256 21.9434 22.5732 20.7539 23.2295C19.5781 23.8857 18.04 24.248 16.1396 24.3164L14.3555 25.8955ZM14.0889 39H5.00391L7.40332 34.2012H14.0889C15.1689 34.2012 16.0508 34.0303 16.7344 33.6885C17.418 33.333 17.9238 32.8545 18.252 32.2529C18.5801 31.6514 18.7441 30.9609 18.7441 30.1816C18.7441 29.3066 18.5938 28.5479 18.293 27.9053C18.0059 27.2627 17.541 26.7705 16.8984 26.4287C16.2559 26.0732 15.4082 25.8955 14.3555 25.8955H8.42871L8.46973 21.6709H15.8525L17.2676 23.332C19.0859 23.3047 20.5488 23.626 21.6562 24.2959C22.7773 24.9521 23.5908 25.8066 24.0967 26.8594C24.6162 27.9121 24.876 29.04 24.876 30.2432C24.876 32.1572 24.459 33.7705 23.625 35.083C22.791 36.3818 21.5674 37.3594 19.9541 38.0156C18.3545 38.6719 16.3994 39 14.0889 39ZM36.4514 15.1084V39H30.5246V15.1084H36.4514ZM54.4048 15.1084V39H48.4575V15.1084H54.4048ZM62.1772 15.1084V19.7432H40.8491V15.1084H62.1772ZM90.7832 9.14062V39H84.6513V9.14062H90.7832ZM99.9707 9.14062V13.96H75.6074V9.14062H99.9707ZM104.102 15.1084H114.089C115.566 15.1084 116.899 15.2656 118.088 15.5801C119.278 15.8809 120.289 16.332 121.123 16.9336C121.971 17.5352 122.62 18.2871 123.071 19.1895C123.523 20.0781 123.748 21.1104 123.748 22.2861C123.748 23.6807 123.516 24.8428 123.051 25.7725C122.586 26.7021 121.944 27.4609 121.123 28.0488C120.303 28.6367 119.353 29.1289 118.273 29.5254L116.304 30.6738H107.814L107.773 26.0596H114.13C114.95 26.0596 115.634 25.9365 116.181 25.6904C116.728 25.4307 117.138 25.0615 117.411 24.583C117.685 24.1045 117.821 23.5371 117.821 22.8809C117.821 22.2109 117.678 21.6436 117.391 21.1787C117.104 20.7139 116.68 20.3584 116.119 20.1123C115.572 19.8662 114.896 19.7432 114.089 19.7432H110.029V39H104.102V15.1084ZM118.273 39L112.551 28.459L118.826 28.3975L124.651 38.7539V39H118.273ZM150.458 26.5723V27.5566C150.458 29.375 150.185 31.0088 149.638 32.458C149.105 33.9072 148.346 35.1445 147.362 36.1699C146.377 37.1953 145.202 37.9814 143.834 38.5283C142.481 39.0615 140.984 39.3281 139.343 39.3281C137.703 39.3281 136.199 39.0615 134.831 38.5283C133.478 37.9814 132.302 37.1953 131.304 36.1699C130.306 35.1445 129.534 33.9072 128.987 32.458C128.44 31.0088 128.166 29.375 128.166 27.5566V26.5723C128.166 24.7402 128.433 23.1064 128.966 21.6709C129.513 20.2217 130.279 18.9844 131.263 17.959C132.261 16.9199 133.437 16.1338 134.79 15.6006C136.158 15.0537 137.662 14.7803 139.302 14.7803C140.943 14.7803 142.44 15.0537 143.793 15.6006C145.161 16.1338 146.343 16.9199 147.341 17.959C148.339 18.9844 149.105 20.2217 149.638 21.6709C150.185 23.1064 150.458 24.7402 150.458 26.5723ZM144.532 27.5566V26.5312C144.532 25.3828 144.409 24.3711 144.163 23.4961C143.93 22.6074 143.588 21.8623 143.137 21.2607C142.7 20.6455 142.153 20.1807 141.497 19.8662C140.854 19.5381 140.122 19.374 139.302 19.374C138.468 19.374 137.723 19.5381 137.067 19.8662C136.424 20.1807 135.884 20.6455 135.447 21.2607C135.009 21.8623 134.674 22.6074 134.442 23.4961C134.223 24.3711 134.114 25.3828 134.114 26.5312V27.5566C134.114 28.6914 134.223 29.7031 134.442 30.5918C134.674 31.4805 135.016 32.2393 135.467 32.8682C135.918 33.4834 136.465 33.9551 137.108 34.2832C137.764 34.5977 138.509 34.7549 139.343 34.7549C140.164 34.7549 140.895 34.5977 141.538 34.2832C142.18 33.9551 142.72 33.4834 143.158 32.8682C143.609 32.2393 143.951 31.4805 144.183 30.5918C144.415 29.7031 144.532 28.6914 144.532 27.5566ZM164.802 32.6016L170.34 15.1084H176.553L167.838 39H163.531L164.802 32.6016ZM158.917 15.1084L164.372 32.54L165.746 39H161.378L152.703 15.1084H158.917ZM197.398 34.3857V39H183.658V34.3857H197.398ZM185.75 15.1084V39H179.844V15.1084H185.75ZM195.635 24.3369V28.9512H183.658V24.3369H195.635ZM197.419 15.1084V19.7432H183.658V15.1084H197.419Z" fill="#3182CE"/>
<path d="M4.18164 45.2031V58H2.48535V45.2031H4.18164ZM9.54297 50.96V52.3486H3.8125V50.96H9.54297ZM10.4131 45.2031V46.5918H3.8125V45.2031H10.4131ZM15.5751 48.4902V58H13.9403V48.4902H15.5751ZM13.8173 45.9678C13.8173 45.7041 13.8964 45.4814 14.0546 45.2998C14.2186 45.1182 14.4589 45.0273 14.7753 45.0273C15.0858 45.0273 15.3231 45.1182 15.4872 45.2998C15.6571 45.4814 15.7421 45.7041 15.7421 45.9678C15.7421 46.2197 15.6571 46.4365 15.4872 46.6182C15.3231 46.7939 15.0858 46.8818 14.7753 46.8818C14.4589 46.8818 14.2186 46.7939 14.0546 46.6182C13.8964 46.4365 13.8173 46.2197 13.8173 45.9678ZM21.4314 50.5205V58H19.8054V48.4902H21.3435L21.4314 50.5205ZM21.0447 52.8848L20.3679 52.8584C20.3738 52.208 20.4705 51.6074 20.658 51.0566C20.8455 50.5 21.1091 50.0166 21.449 49.6064C21.7888 49.1963 22.1931 48.8799 22.6619 48.6572C23.1365 48.4287 23.6609 48.3145 24.2351 48.3145C24.7039 48.3145 25.1257 48.3789 25.5007 48.5078C25.8757 48.6309 26.1951 48.8301 26.4587 49.1055C26.7283 49.3809 26.9334 49.7383 27.074 50.1777C27.2146 50.6113 27.2849 51.1416 27.2849 51.7686V58H25.6502V51.751C25.6502 51.2529 25.5769 50.8545 25.4304 50.5557C25.2839 50.251 25.0701 50.0312 24.7888 49.8965C24.5076 49.7559 24.1619 49.6855 23.7517 49.6855C23.3474 49.6855 22.9783 49.7705 22.6443 49.9404C22.3162 50.1104 22.032 50.3447 21.7918 50.6436C21.5574 50.9424 21.3728 51.2852 21.238 51.6719C21.1091 52.0527 21.0447 52.457 21.0447 52.8848ZM37.3688 56.1543V44.5H39.0036V58H37.5094L37.3688 56.1543ZM30.9704 53.3506V53.166C30.9704 52.4395 31.0582 51.7803 31.234 51.1885C31.4157 50.5908 31.6705 50.0781 31.9987 49.6504C32.3327 49.2227 32.7282 48.8945 33.1852 48.666C33.6481 48.4316 34.1637 48.3145 34.7321 48.3145C35.3297 48.3145 35.8512 48.4199 36.2965 48.6309C36.7477 48.8359 37.1286 49.1377 37.4391 49.5361C37.7555 49.9287 38.0045 50.4033 38.1862 50.96C38.3678 51.5166 38.4938 52.1465 38.5641 52.8496V53.6582C38.4996 54.3555 38.3737 54.9824 38.1862 55.5391C38.0045 56.0957 37.7555 56.5703 37.4391 56.9629C37.1286 57.3555 36.7477 57.6572 36.2965 57.8682C35.8454 58.0732 35.318 58.1758 34.7145 58.1758C34.1579 58.1758 33.6481 58.0557 33.1852 57.8154C32.7282 57.5752 32.3327 57.2383 31.9987 56.8047C31.6705 56.3711 31.4157 55.8613 31.234 55.2754C31.0582 54.6836 30.9704 54.042 30.9704 53.3506ZM32.6051 53.166V53.3506C32.6051 53.8252 32.652 54.2705 32.7457 54.6865C32.8454 55.1025 32.9977 55.4688 33.2028 55.7852C33.4079 56.1016 33.6686 56.3506 33.985 56.5322C34.3014 56.708 34.6793 56.7959 35.1188 56.7959C35.6579 56.7959 36.1002 56.6816 36.4459 56.4531C36.7975 56.2246 37.0788 55.9229 37.2897 55.5479C37.5006 55.1729 37.6647 54.7656 37.7819 54.3262V52.208C37.7116 51.8857 37.609 51.5752 37.4743 51.2764C37.3454 50.9717 37.1754 50.7021 36.9645 50.4678C36.7594 50.2275 36.5045 50.0371 36.1998 49.8965C35.901 49.7559 35.5465 49.6855 35.1364 49.6855C34.6911 49.6855 34.3073 49.7793 33.985 49.9668C33.6686 50.1484 33.4079 50.4004 33.2028 50.7227C32.9977 51.0391 32.8454 51.4082 32.7457 51.8301C32.652 52.2461 32.6051 52.6914 32.6051 53.166ZM51.9115 57.0156L54.557 48.4902H56.2973L52.4828 59.4678C52.3949 59.7021 52.2777 59.9541 52.1312 60.2236C51.9906 60.499 51.809 60.7598 51.5863 61.0059C51.3637 61.252 51.0941 61.4512 50.7777 61.6035C50.4672 61.7617 50.0951 61.8408 49.6615 61.8408C49.5326 61.8408 49.3686 61.8232 49.1693 61.7881C48.9701 61.7529 48.8295 61.7236 48.7475 61.7002L48.7387 60.3818C48.7855 60.3877 48.8588 60.3936 48.9584 60.3994C49.0639 60.4111 49.1371 60.417 49.1781 60.417C49.5473 60.417 49.8607 60.3672 50.1186 60.2676C50.3764 60.1738 50.5932 60.0127 50.7689 59.7842C50.9506 59.5615 51.1059 59.2539 51.2348 58.8613L51.9115 57.0156ZM49.9691 48.4902L52.4389 55.873L52.8607 57.5869L51.6918 58.1846L48.1937 48.4902H49.9691ZM58.8138 53.3506V53.1484C58.8138 52.4629 58.9134 51.8271 59.1126 51.2412C59.3118 50.6494 59.5989 50.1367 59.9739 49.7031C60.3489 49.2637 60.803 48.9238 61.3362 48.6836C61.8694 48.4375 62.4671 48.3145 63.1292 48.3145C63.7971 48.3145 64.3977 48.4375 64.9309 48.6836C65.47 48.9238 65.927 49.2637 66.302 49.7031C66.6829 50.1367 66.9729 50.6494 67.1721 51.2412C67.3714 51.8271 67.471 52.4629 67.471 53.1484V53.3506C67.471 54.0361 67.3714 54.6719 67.1721 55.2578C66.9729 55.8438 66.6829 56.3564 66.302 56.7959C65.927 57.2295 65.4729 57.5693 64.9397 57.8154C64.4124 58.0557 63.8147 58.1758 63.1468 58.1758C62.4788 58.1758 61.8782 58.0557 61.345 57.8154C60.8118 57.5693 60.3548 57.2295 59.9739 56.7959C59.5989 56.3564 59.3118 55.8438 59.1126 55.2578C58.9134 54.6719 58.8138 54.0361 58.8138 53.3506ZM60.4397 53.1484V53.3506C60.4397 53.8252 60.4954 54.2734 60.6067 54.6953C60.718 55.1113 60.885 55.4805 61.1077 55.8027C61.3362 56.125 61.6204 56.3799 61.9602 56.5674C62.3001 56.749 62.6956 56.8398 63.1468 56.8398C63.5921 56.8398 63.9817 56.749 64.3157 56.5674C64.6555 56.3799 64.9368 56.125 65.1595 55.8027C65.3821 55.4805 65.5491 55.1113 65.6604 54.6953C65.7776 54.2734 65.8362 53.8252 65.8362 53.3506V53.1484C65.8362 52.6797 65.7776 52.2373 65.6604 51.8213C65.5491 51.3994 65.3792 51.0273 65.1507 50.7051C64.928 50.377 64.6468 50.1191 64.3069 49.9316C63.9729 49.7441 63.5804 49.6504 63.1292 49.6504C62.6839 49.6504 62.2913 49.7441 61.9514 49.9316C61.6175 50.1191 61.3362 50.377 61.1077 50.7051C60.885 51.0273 60.718 51.3994 60.6067 51.8213C60.4954 52.2373 60.4397 52.6797 60.4397 53.1484ZM76.9484 55.8027V48.4902H78.5832V58H77.0275L76.9484 55.8027ZM77.256 53.7988L77.9328 53.7812C77.9328 54.4141 77.8654 55 77.7306 55.5391C77.6017 56.0723 77.3908 56.5352 77.0978 56.9277C76.8048 57.3203 76.4211 57.6279 75.9464 57.8506C75.4718 58.0674 74.8947 58.1758 74.215 58.1758C73.7521 58.1758 73.3273 58.1084 72.9406 57.9736C72.5597 57.8389 72.2316 57.6309 71.9562 57.3496C71.6808 57.0684 71.4669 56.7021 71.3146 56.251C71.1681 55.7998 71.0949 55.2578 71.0949 54.625V48.4902H72.7209V54.6426C72.7209 55.0703 72.7677 55.4248 72.8615 55.7061C72.9611 55.9814 73.0929 56.2012 73.257 56.3652C73.4269 56.5234 73.6144 56.6348 73.8195 56.6992C74.0304 56.7637 74.2472 56.7959 74.4699 56.7959C75.1613 56.7959 75.7091 56.6641 76.1134 56.4004C76.5177 56.1309 76.8078 55.7705 76.9836 55.3193C77.1652 54.8623 77.256 54.3555 77.256 53.7988ZM84.3077 49.9844V58H82.6817V48.4902H84.2637L84.3077 49.9844ZM87.2784 48.4375L87.2696 49.9492C87.1348 49.9199 87.0059 49.9023 86.8829 49.8965C86.7657 49.8848 86.6309 49.8789 86.4786 49.8789C86.1036 49.8789 85.7725 49.9375 85.4854 50.0547C85.1983 50.1719 84.9551 50.3359 84.7559 50.5469C84.5567 50.7578 84.3985 51.0098 84.2813 51.3027C84.17 51.5898 84.0967 51.9062 84.0616 52.252L83.6045 52.5156C83.6045 51.9414 83.6602 51.4023 83.7715 50.8984C83.8887 50.3945 84.0674 49.9492 84.3077 49.5625C84.5479 49.1699 84.8526 48.8652 85.2217 48.6484C85.5967 48.4258 86.042 48.3145 86.5577 48.3145C86.6748 48.3145 86.8096 48.3291 86.962 48.3584C87.1143 48.3818 87.2198 48.4082 87.2784 48.4375ZM100.468 48.4902V49.7383H95.326V48.4902H100.468ZM97.0662 46.1787H98.6922V55.6445C98.6922 55.9668 98.742 56.21 98.8416 56.374C98.9412 56.5381 99.0701 56.6465 99.2283 56.6992C99.3865 56.752 99.5564 56.7783 99.7381 56.7783C99.8728 56.7783 100.013 56.7666 100.16 56.7432C100.312 56.7139 100.427 56.6904 100.503 56.6729L100.512 58C100.383 58.041 100.213 58.0791 100.002 58.1143C99.7967 58.1553 99.5477 58.1758 99.2547 58.1758C98.8562 58.1758 98.49 58.0967 98.1561 57.9385C97.8221 57.7803 97.5555 57.5166 97.3562 57.1475C97.1629 56.7725 97.0662 56.2686 97.0662 55.6357V46.1787ZM105.621 49.9844V58H103.995V48.4902H105.577L105.621 49.9844ZM108.591 48.4375L108.583 49.9492C108.448 49.9199 108.319 49.9023 108.196 49.8965C108.079 49.8848 107.944 49.8789 107.792 49.8789C107.417 49.8789 107.086 49.9375 106.799 50.0547C106.511 50.1719 106.268 50.3359 106.069 50.5469C105.87 50.7578 105.712 51.0098 105.594 51.3027C105.483 51.5898 105.41 51.9062 105.375 52.252L104.918 52.5156C104.918 51.9414 104.973 51.4023 105.085 50.8984C105.202 50.3945 105.381 49.9492 105.621 49.5625C105.861 49.1699 106.166 48.8652 106.535 48.6484C106.91 48.4258 107.355 48.3145 107.871 48.3145C107.988 48.3145 108.123 48.3291 108.275 48.3584C108.427 48.3818 108.533 48.4082 108.591 48.4375ZM111.108 53.3506V53.1484C111.108 52.4629 111.208 51.8271 111.407 51.2412C111.606 50.6494 111.893 50.1367 112.268 49.7031C112.643 49.2637 113.097 48.9238 113.63 48.6836C114.164 48.4375 114.761 48.3145 115.423 48.3145C116.091 48.3145 116.692 48.4375 117.225 48.6836C117.764 48.9238 118.221 49.2637 118.596 49.7031C118.977 50.1367 119.267 50.6494 119.466 51.2412C119.666 51.8271 119.765 52.4629 119.765 53.1484V53.3506C119.765 54.0361 119.666 54.6719 119.466 55.2578C119.267 55.8438 118.977 56.3564 118.596 56.7959C118.221 57.2295 117.767 57.5693 117.234 57.8154C116.707 58.0557 116.109 58.1758 115.441 58.1758C114.773 58.1758 114.172 58.0557 113.639 57.8154C113.106 57.5693 112.649 57.2295 112.268 56.7959C111.893 56.3564 111.606 55.8438 111.407 55.2578C111.208 54.6719 111.108 54.0361 111.108 53.3506ZM112.734 53.1484V53.3506C112.734 53.8252 112.79 54.2734 112.901 54.6953C113.012 55.1113 113.179 55.4805 113.402 55.8027C113.63 56.125 113.915 56.3799 114.254 56.5674C114.594 56.749 114.99 56.8398 115.441 56.8398C115.886 56.8398 116.276 56.749 116.61 56.5674C116.95 56.3799 117.231 56.125 117.454 55.8027C117.676 55.4805 117.843 55.1113 117.955 54.6953C118.072 54.2734 118.13 53.8252 118.13 53.3506V53.1484C118.13 52.6797 118.072 52.2373 117.955 51.8213C117.843 51.3994 117.673 51.0273 117.445 50.7051C117.222 50.377 116.941 50.1191 116.601 49.9316C116.267 49.7441 115.875 49.6504 115.423 49.6504C114.978 49.6504 114.586 49.7441 114.246 49.9316C113.912 50.1191 113.63 50.377 113.402 50.7051C113.179 51.0273 113.012 51.3994 112.901 51.8213C112.79 52.2373 112.734 52.6797 112.734 53.1484ZM126.175 56.5322L128.777 48.4902H130.438L127.019 58H125.929L126.175 56.5322ZM124.004 48.4902L126.685 56.5762L126.87 58H125.78L122.334 48.4902H124.004ZM137.446 58.1758C136.784 58.1758 136.183 58.0645 135.644 57.8418C135.111 57.6133 134.651 57.2939 134.264 56.8838C133.883 56.4736 133.59 55.9873 133.385 55.4248C133.18 54.8623 133.077 54.2471 133.077 53.5791V53.21C133.077 52.4365 133.192 51.748 133.42 51.1445C133.649 50.5352 133.959 50.0195 134.352 49.5977C134.744 49.1758 135.19 48.8564 135.688 48.6396C136.186 48.4229 136.701 48.3145 137.235 48.3145C137.914 48.3145 138.5 48.4316 138.992 48.666C139.491 48.9004 139.898 49.2285 140.214 49.6504C140.531 50.0664 140.765 50.5586 140.917 51.127C141.07 51.6895 141.146 52.3047 141.146 52.9727V53.7021H134.044V52.375H139.52V52.252C139.496 51.8301 139.409 51.4199 139.256 51.0215C139.11 50.623 138.875 50.2949 138.553 50.0371C138.231 49.7793 137.791 49.6504 137.235 49.6504C136.866 49.6504 136.526 49.7295 136.215 49.8877C135.905 50.04 135.638 50.2686 135.415 50.5732C135.193 50.8779 135.02 51.25 134.897 51.6895C134.774 52.1289 134.712 52.6357 134.712 53.21V53.5791C134.712 54.0303 134.774 54.4551 134.897 54.8535C135.026 55.2461 135.21 55.5918 135.451 55.8906C135.697 56.1895 135.992 56.4238 136.338 56.5938C136.69 56.7637 137.088 56.8486 137.534 56.8486C138.108 56.8486 138.594 56.7314 138.992 56.4971C139.391 56.2627 139.74 55.9492 140.038 55.5566L141.023 56.3389C140.818 56.6494 140.557 56.9453 140.241 57.2266C139.924 57.5078 139.534 57.7363 139.072 57.9121C138.615 58.0879 138.073 58.1758 137.446 58.1758ZM154.731 48.4902V49.7383H149.589V48.4902H154.731ZM151.329 46.1787H152.955V55.6445C152.955 55.9668 153.005 56.21 153.105 56.374C153.204 56.5381 153.333 56.6465 153.491 56.6992C153.649 56.752 153.819 56.7783 154.001 56.7783C154.136 56.7783 154.276 56.7666 154.423 56.7432C154.575 56.7139 154.69 56.6904 154.766 56.6729L154.774 58C154.646 58.041 154.476 58.0791 154.265 58.1143C154.06 58.1553 153.811 58.1758 153.518 58.1758C153.119 58.1758 152.753 58.0967 152.419 57.9385C152.085 57.7803 151.818 57.5166 151.619 57.1475C151.426 56.7725 151.329 56.2686 151.329 55.6357V46.1787ZM159.884 44.5V58H158.258V44.5H159.884ZM159.497 52.8848L158.82 52.8584C158.826 52.208 158.923 51.6074 159.11 51.0566C159.298 50.5 159.561 50.0166 159.901 49.6064C160.241 49.1963 160.645 48.8799 161.114 48.6572C161.589 48.4287 162.113 48.3145 162.687 48.3145C163.156 48.3145 163.578 48.3789 163.953 48.5078C164.328 48.6309 164.647 48.8301 164.911 49.1055C165.181 49.3809 165.386 49.7383 165.526 50.1777C165.667 50.6113 165.737 51.1416 165.737 51.7686V58H164.102V51.751C164.102 51.2529 164.029 50.8545 163.883 50.5557C163.736 50.251 163.522 50.0312 163.241 49.8965C162.96 49.7559 162.614 49.6855 162.204 49.6855C161.8 49.6855 161.431 49.7705 161.097 49.9404C160.769 50.1104 160.484 50.3447 160.244 50.6436C160.01 50.9424 159.825 51.2852 159.69 51.6719C159.561 52.0527 159.497 52.457 159.497 52.8848ZM173.738 58.1758C173.076 58.1758 172.475 58.0645 171.936 57.8418C171.403 57.6133 170.943 57.2939 170.556 56.8838C170.176 56.4736 169.883 55.9873 169.678 55.4248C169.473 54.8623 169.37 54.2471 169.37 53.5791V53.21C169.37 52.4365 169.484 51.748 169.713 51.1445C169.941 50.5352 170.252 50.0195 170.644 49.5977C171.037 49.1758 171.482 48.8564 171.98 48.6396C172.478 48.4229 172.994 48.3145 173.527 48.3145C174.207 48.3145 174.793 48.4316 175.285 48.666C175.783 48.9004 176.19 49.2285 176.507 49.6504C176.823 50.0664 177.057 50.5586 177.21 51.127C177.362 51.6895 177.438 52.3047 177.438 52.9727V53.7021H170.337V52.375H175.812V52.252C175.789 51.8301 175.701 51.4199 175.549 51.0215C175.402 50.623 175.168 50.2949 174.846 50.0371C174.523 49.7793 174.084 49.6504 173.527 49.6504C173.158 49.6504 172.818 49.7295 172.508 49.8877C172.197 50.04 171.931 50.2686 171.708 50.5732C171.485 50.8779 171.312 51.25 171.189 51.6895C171.066 52.1289 171.005 52.6357 171.005 53.21V53.5791C171.005 54.0303 171.066 54.4551 171.189 54.8535C171.318 55.2461 171.503 55.5918 171.743 55.8906C171.989 56.1895 172.285 56.4238 172.631 56.5938C172.982 56.7637 173.381 56.8486 173.826 56.8486C174.4 56.8486 174.887 56.7314 175.285 56.4971C175.683 56.2627 176.032 55.9492 176.331 55.5566L177.315 56.3389C177.11 56.6494 176.849 56.9453 176.533 57.2266C176.217 57.5078 175.827 57.7363 175.364 57.9121C174.907 58.0879 174.365 58.1758 173.738 58.1758ZM182.583 49.9844V58H180.957V48.4902H182.539L182.583 49.9844ZM185.553 48.4375L185.545 49.9492C185.41 49.9199 185.281 49.9023 185.158 49.8965C185.041 49.8848 184.906 49.8789 184.754 49.8789C184.379 49.8789 184.048 49.9375 183.76 50.0547C183.473 50.1719 183.23 50.3359 183.031 50.5469C182.832 50.7578 182.674 51.0098 182.556 51.3027C182.445 51.5898 182.372 51.9062 182.337 52.252L181.88 52.5156C181.88 51.9414 181.935 51.4023 182.047 50.8984C182.164 50.3945 182.342 49.9492 182.583 49.5625C182.823 49.1699 183.128 48.8652 183.497 48.6484C183.872 48.4258 184.317 48.3145 184.833 48.3145C184.95 48.3145 185.085 48.3291 185.237 48.3584C185.389 48.3818 185.495 48.4082 185.553 48.4375ZM192.447 58.1758C191.785 58.1758 191.184 58.0645 190.645 57.8418C190.112 57.6133 189.652 57.2939 189.265 56.8838C188.884 56.4736 188.591 55.9873 188.386 55.4248C188.181 54.8623 188.079 54.2471 188.079 53.5791V53.21C188.079 52.4365 188.193 51.748 188.421 51.1445C188.65 50.5352 188.961 50.0195 189.353 49.5977C189.746 49.1758 190.191 48.8564 190.689 48.6396C191.187 48.4229 191.703 48.3145 192.236 48.3145C192.916 48.3145 193.502 48.4316 193.994 48.666C194.492 48.9004 194.899 49.2285 195.215 49.6504C195.532 50.0664 195.766 50.5586 195.919 51.127C196.071 51.6895 196.147 52.3047 196.147 52.9727V53.7021H189.046V52.375H194.521V52.252C194.498 51.8301 194.41 51.4199 194.257 51.0215C194.111 50.623 193.877 50.2949 193.554 50.0371C193.232 49.7793 192.793 49.6504 192.236 49.6504C191.867 49.6504 191.527 49.7295 191.216 49.8877C190.906 50.04 190.639 50.2686 190.417 50.5732C190.194 50.8779 190.021 51.25 189.898 51.6895C189.775 52.1289 189.713 52.6357 189.713 53.21V53.5791C189.713 54.0303 189.775 54.4551 189.898 54.8535C190.027 55.2461 190.212 55.5918 190.452 55.8906C190.698 56.1895 190.994 56.4238 191.339 56.5938C191.691 56.7637 192.089 56.8486 192.535 56.8486C193.109 56.8486 193.595 56.7314 193.994 56.4971C194.392 56.2627 194.741 55.9492 195.04 55.5566L196.024 56.3389C195.819 56.6494 195.558 56.9453 195.242 57.2266C194.925 57.5078 194.536 57.7363 194.073 57.9121C193.616 58.0879 193.074 58.1758 192.447 58.1758Z" fill="#3182CE"/>
</svg>
