<svg width="295" height="84" viewBox="0 0 295 84" fill="none" xmlns="http://www.w3.org/2000/svg">
<rect width="89" height="81" rx="8" fill="#3182CE"/>
<path d="M37.4617 50.6367L32.0383 56.0602L29.022 53.1019L33.5754 48.5485C34.3778 47.7461 34.9337 46.9872 35.2431 46.2718C35.5427 45.5468 35.6201 44.8604 35.4751 44.2127C35.3301 43.5456 34.9675 42.9221 34.3875 42.342C33.7301 41.6846 33.0727 41.2786 32.4153 41.1239C31.7676 40.9596 31.0909 41.0466 30.3851 41.3849C29.6891 41.7136 28.935 42.284 28.123 43.0961L25.1067 46.1123L42.8127 63.8183L38.4623 68.1687L17.3486 47.0549L24.7152 39.6883C25.9429 38.4605 27.1562 37.4793 28.355 36.7445C29.5634 36.0001 30.7428 35.5264 31.8933 35.3234C33.0437 35.1204 34.1603 35.2026 35.2431 35.5699C36.3161 35.9276 37.3457 36.5995 38.3318 37.5856C39.2019 38.4557 39.8061 39.4563 40.1445 40.5874C40.4925 41.7088 40.478 42.9221 40.101 44.2272C39.7336 45.5226 38.9022 46.8664 37.6068 48.2585L37.4617 50.6367ZM46.5395 60.0915L40.1155 66.5155L38.4188 61.4256L43.1462 56.6982C43.9099 55.9345 44.4127 55.1901 44.6543 54.465C44.8864 53.7303 44.9057 53.0342 44.7123 52.3768C44.519 51.7195 44.1468 51.1152 43.5958 50.5642C42.977 49.9455 42.3341 49.5153 41.6671 49.2736C41.0097 49.0222 40.333 49.0029 39.6369 49.2156C38.9312 49.4186 38.2061 49.8923 37.4617 50.6367L33.2709 54.8276L30.3126 51.8113L35.5331 46.5909L37.7083 46.7649C38.9747 45.4598 40.2363 44.6525 41.4931 44.3432C42.7498 44.0145 43.9293 44.0435 45.0314 44.4302C46.1431 44.8072 47.1244 45.4211 47.9751 46.2718C49.3286 47.6253 50.1745 49.0609 50.5128 50.5787C50.8415 52.0868 50.6675 53.6433 49.9908 55.2481C49.3237 56.8432 48.1733 58.4577 46.5395 60.0915ZM45.3504 19.0531L66.4642 40.1668L62.1283 44.5027L41.0145 23.3889L45.3504 19.0531ZM51.8469 12.5565L55.2547 15.9643L38.0273 33.1917L34.6195 29.784L51.8469 12.5565Z" fill="white"/>
<path d="M110.355 47.8955H102.686L102.645 43.6709H109.084C110.219 43.6709 111.148 43.5273 111.873 43.2402C112.598 42.9395 113.138 42.5088 113.493 41.9482C113.862 41.374 114.047 40.6768 114.047 39.8564C114.047 38.9268 113.869 38.1748 113.514 37.6006C113.172 37.0264 112.632 36.6094 111.894 36.3496C111.169 36.0898 110.232 35.96 109.084 35.96H104.818V61H98.666V31.1406H109.084C110.82 31.1406 112.372 31.3047 113.739 31.6328C115.12 31.9609 116.289 32.46 117.246 33.1299C118.203 33.7998 118.935 34.6475 119.44 35.6729C119.946 36.6846 120.199 37.8877 120.199 39.2822C120.199 40.5127 119.919 41.6475 119.358 42.6865C118.812 43.7256 117.943 44.5732 116.754 45.2295C115.578 45.8857 114.04 46.248 112.14 46.3164L110.355 47.8955ZM110.089 61H101.004L103.403 56.2012H110.089C111.169 56.2012 112.051 56.0303 112.734 55.6885C113.418 55.333 113.924 54.8545 114.252 54.2529C114.58 53.6514 114.744 52.9609 114.744 52.1816C114.744 51.3066 114.594 50.5479 114.293 49.9053C114.006 49.2627 113.541 48.7705 112.898 48.4287C112.256 48.0732 111.408 47.8955 110.355 47.8955H104.429L104.47 43.6709H111.853L113.268 45.332C115.086 45.3047 116.549 45.626 117.656 46.2959C118.777 46.9521 119.591 47.8066 120.097 48.8594C120.616 49.9121 120.876 51.04 120.876 52.2432C120.876 54.1572 120.459 55.7705 119.625 57.083C118.791 58.3818 117.567 59.3594 115.954 60.0156C114.354 60.6719 112.399 61 110.089 61ZM132.451 37.1084V61H126.525V37.1084H132.451ZM150.405 37.1084V61H144.458V37.1084H150.405ZM158.177 37.1084V41.7432H136.849V37.1084H158.177ZM186.783 31.1406V61H180.651V31.1406H186.783ZM195.971 31.1406V35.96H171.607V31.1406H195.971ZM200.102 37.1084H210.089C211.566 37.1084 212.899 37.2656 214.088 37.5801C215.278 37.8809 216.289 38.332 217.123 38.9336C217.971 39.5352 218.62 40.2871 219.071 41.1895C219.523 42.0781 219.748 43.1104 219.748 44.2861C219.748 45.6807 219.516 46.8428 219.051 47.7725C218.586 48.7021 217.944 49.4609 217.123 50.0488C216.303 50.6367 215.353 51.1289 214.273 51.5254L212.304 52.6738H203.814L203.773 48.0596H210.13C210.95 48.0596 211.634 47.9365 212.181 47.6904C212.728 47.4307 213.138 47.0615 213.411 46.583C213.685 46.1045 213.821 45.5371 213.821 44.8809C213.821 44.2109 213.678 43.6436 213.391 43.1787C213.104 42.7139 212.68 42.3584 212.119 42.1123C211.572 41.8662 210.896 41.7432 210.089 41.7432H206.029V61H200.102V37.1084ZM214.273 61L208.551 50.459L214.826 50.3975L220.651 60.7539V61H214.273ZM246.458 48.5723V49.5566C246.458 51.375 246.185 53.0088 245.638 54.458C245.105 55.9072 244.346 57.1445 243.362 58.1699C242.377 59.1953 241.202 59.9814 239.834 60.5283C238.481 61.0615 236.984 61.3281 235.343 61.3281C233.703 61.3281 232.199 61.0615 230.831 60.5283C229.478 59.9814 228.302 59.1953 227.304 58.1699C226.306 57.1445 225.534 55.9072 224.987 54.458C224.44 53.0088 224.166 51.375 224.166 49.5566V48.5723C224.166 46.7402 224.433 45.1064 224.966 43.6709C225.513 42.2217 226.279 40.9844 227.263 39.959C228.261 38.9199 229.437 38.1338 230.79 37.6006C232.158 37.0537 233.662 36.7803 235.302 36.7803C236.943 36.7803 238.44 37.0537 239.793 37.6006C241.161 38.1338 242.343 38.9199 243.341 39.959C244.339 40.9844 245.105 42.2217 245.638 43.6709C246.185 45.1064 246.458 46.7402 246.458 48.5723ZM240.532 49.5566V48.5312C240.532 47.3828 240.409 46.3711 240.163 45.4961C239.93 44.6074 239.588 43.8623 239.137 43.2607C238.7 42.6455 238.153 42.1807 237.497 41.8662C236.854 41.5381 236.122 41.374 235.302 41.374C234.468 41.374 233.723 41.5381 233.067 41.8662C232.424 42.1807 231.884 42.6455 231.447 43.2607C231.009 43.8623 230.674 44.6074 230.442 45.4961C230.223 46.3711 230.114 47.3828 230.114 48.5312V49.5566C230.114 50.6914 230.223 51.7031 230.442 52.5918C230.674 53.4805 231.016 54.2393 231.467 54.8682C231.918 55.4834 232.465 55.9551 233.108 56.2832C233.764 56.5977 234.509 56.7549 235.343 56.7549C236.164 56.7549 236.895 56.5977 237.538 56.2832C238.18 55.9551 238.72 55.4834 239.158 54.8682C239.609 54.2393 239.951 53.4805 240.183 52.5918C240.415 51.7031 240.532 50.6914 240.532 49.5566ZM260.802 54.6016L266.34 37.1084H272.553L263.838 61H259.531L260.802 54.6016ZM254.917 37.1084L260.372 54.54L261.746 61H257.378L248.703 37.1084H254.917ZM293.398 56.3857V61H279.658V56.3857H293.398ZM281.75 37.1084V61H275.844V37.1084H281.75ZM291.635 46.3369V50.9512H279.658V46.3369H291.635ZM293.419 37.1084V41.7432H279.658V37.1084H293.419Z" fill="#3182CE"/>
<path d="M100.182 67.2031V80H98.4854V67.2031H100.182ZM105.543 72.96V74.3486H99.8125V72.96H105.543ZM106.413 67.2031V68.5918H99.8125V67.2031H106.413ZM111.575 70.4902V80H109.94V70.4902H111.575ZM109.817 67.9678C109.817 67.7041 109.896 67.4814 110.055 67.2998C110.219 67.1182 110.459 67.0273 110.775 67.0273C111.086 67.0273 111.323 67.1182 111.487 67.2998C111.657 67.4814 111.742 67.7041 111.742 67.9678C111.742 68.2197 111.657 68.4365 111.487 68.6182C111.323 68.7939 111.086 68.8818 110.775 68.8818C110.459 68.8818 110.219 68.7939 110.055 68.6182C109.896 68.4365 109.817 68.2197 109.817 67.9678ZM117.431 72.5205V80H115.805V70.4902H117.344L117.431 72.5205ZM117.045 74.8848L116.368 74.8584C116.374 74.208 116.47 73.6074 116.658 73.0566C116.845 72.5 117.109 72.0166 117.449 71.6064C117.789 71.1963 118.193 70.8799 118.662 70.6572C119.136 70.4287 119.661 70.3145 120.235 70.3145C120.704 70.3145 121.126 70.3789 121.501 70.5078C121.876 70.6309 122.195 70.8301 122.459 71.1055C122.728 71.3809 122.933 71.7383 123.074 72.1777C123.215 72.6113 123.285 73.1416 123.285 73.7686V80H121.65V73.751C121.65 73.2529 121.577 72.8545 121.43 72.5557C121.284 72.251 121.07 72.0312 120.789 71.8965C120.508 71.7559 120.162 71.6855 119.752 71.6855C119.347 71.6855 118.978 71.7705 118.644 71.9404C118.316 72.1104 118.032 72.3447 117.792 72.6436C117.557 72.9424 117.373 73.2852 117.238 73.6719C117.109 74.0527 117.045 74.457 117.045 74.8848ZM133.369 78.1543V66.5H135.004V80H133.509L133.369 78.1543ZM126.97 75.3506V75.166C126.97 74.4395 127.058 73.7803 127.234 73.1885C127.416 72.5908 127.671 72.0781 127.999 71.6504C128.333 71.2227 128.728 70.8945 129.185 70.666C129.648 70.4316 130.164 70.3145 130.732 70.3145C131.33 70.3145 131.851 70.4199 132.297 70.6309C132.748 70.8359 133.129 71.1377 133.439 71.5361C133.756 71.9287 134.005 72.4033 134.186 72.96C134.368 73.5166 134.494 74.1465 134.564 74.8496V75.6582C134.5 76.3555 134.374 76.9824 134.186 77.5391C134.005 78.0957 133.756 78.5703 133.439 78.9629C133.129 79.3555 132.748 79.6572 132.297 79.8682C131.845 80.0732 131.318 80.1758 130.714 80.1758C130.158 80.1758 129.648 80.0557 129.185 79.8154C128.728 79.5752 128.333 79.2383 127.999 78.8047C127.671 78.3711 127.416 77.8613 127.234 77.2754C127.058 76.6836 126.97 76.042 126.97 75.3506ZM128.605 75.166V75.3506C128.605 75.8252 128.652 76.2705 128.746 76.6865C128.845 77.1025 128.998 77.4688 129.203 77.7852C129.408 78.1016 129.669 78.3506 129.985 78.5322C130.301 78.708 130.679 78.7959 131.119 78.7959C131.658 78.7959 132.1 78.6816 132.446 78.4531C132.798 78.2246 133.079 77.9229 133.29 77.5479C133.501 77.1729 133.665 76.7656 133.782 76.3262V74.208C133.712 73.8857 133.609 73.5752 133.474 73.2764C133.345 72.9717 133.175 72.7021 132.964 72.4678C132.759 72.2275 132.505 72.0371 132.2 71.8965C131.901 71.7559 131.547 71.6855 131.136 71.6855C130.691 71.6855 130.307 71.7793 129.985 71.9668C129.669 72.1484 129.408 72.4004 129.203 72.7227C128.998 73.0391 128.845 73.4082 128.746 73.8301C128.652 74.2461 128.605 74.6914 128.605 75.166ZM147.912 79.0156L150.557 70.4902H152.297L148.483 81.4678C148.395 81.7021 148.278 81.9541 148.131 82.2236C147.991 82.499 147.809 82.7598 147.586 83.0059C147.364 83.252 147.094 83.4512 146.778 83.6035C146.467 83.7617 146.095 83.8408 145.662 83.8408C145.533 83.8408 145.369 83.8232 145.169 83.7881C144.97 83.7529 144.829 83.7236 144.747 83.7002L144.739 82.3818C144.786 82.3877 144.859 82.3936 144.958 82.3994C145.064 82.4111 145.137 82.417 145.178 82.417C145.547 82.417 145.861 82.3672 146.119 82.2676C146.376 82.1738 146.593 82.0127 146.769 81.7842C146.951 81.5615 147.106 81.2539 147.235 80.8613L147.912 79.0156ZM145.969 70.4902L148.439 77.873L148.861 79.5869L147.692 80.1846L144.194 70.4902H145.969ZM154.814 75.3506V75.1484C154.814 74.4629 154.913 73.8271 155.113 73.2412C155.312 72.6494 155.599 72.1367 155.974 71.7031C156.349 71.2637 156.803 70.9238 157.336 70.6836C157.869 70.4375 158.467 70.3145 159.129 70.3145C159.797 70.3145 160.398 70.4375 160.931 70.6836C161.47 70.9238 161.927 71.2637 162.302 71.7031C162.683 72.1367 162.973 72.6494 163.172 73.2412C163.371 73.8271 163.471 74.4629 163.471 75.1484V75.3506C163.471 76.0361 163.371 76.6719 163.172 77.2578C162.973 77.8438 162.683 78.3564 162.302 78.7959C161.927 79.2295 161.473 79.5693 160.94 79.8154C160.412 80.0557 159.815 80.1758 159.147 80.1758C158.479 80.1758 157.878 80.0557 157.345 79.8154C156.812 79.5693 156.355 79.2295 155.974 78.7959C155.599 78.3564 155.312 77.8438 155.113 77.2578C154.913 76.6719 154.814 76.0361 154.814 75.3506ZM156.44 75.1484V75.3506C156.44 75.8252 156.495 76.2734 156.607 76.6953C156.718 77.1113 156.885 77.4805 157.108 77.8027C157.336 78.125 157.62 78.3799 157.96 78.5674C158.3 78.749 158.696 78.8398 159.147 78.8398C159.592 78.8398 159.982 78.749 160.316 78.5674C160.656 78.3799 160.937 78.125 161.159 77.8027C161.382 77.4805 161.549 77.1113 161.66 76.6953C161.778 76.2734 161.836 75.8252 161.836 75.3506V75.1484C161.836 74.6797 161.778 74.2373 161.66 73.8213C161.549 73.3994 161.379 73.0273 161.151 72.7051C160.928 72.377 160.647 72.1191 160.307 71.9316C159.973 71.7441 159.58 71.6504 159.129 71.6504C158.684 71.6504 158.291 71.7441 157.951 71.9316C157.617 72.1191 157.336 72.377 157.108 72.7051C156.885 73.0273 156.718 73.3994 156.607 73.8213C156.495 74.2373 156.44 74.6797 156.44 75.1484ZM172.948 77.8027V70.4902H174.583V80H173.027L172.948 77.8027ZM173.256 75.7988L173.933 75.7812C173.933 76.4141 173.865 77 173.731 77.5391C173.602 78.0723 173.391 78.5352 173.098 78.9277C172.805 79.3203 172.421 79.6279 171.946 79.8506C171.472 80.0674 170.895 80.1758 170.215 80.1758C169.752 80.1758 169.327 80.1084 168.941 79.9736C168.56 79.8389 168.232 79.6309 167.956 79.3496C167.681 79.0684 167.467 78.7021 167.315 78.251C167.168 77.7998 167.095 77.2578 167.095 76.625V70.4902H168.721V76.6426C168.721 77.0703 168.768 77.4248 168.861 77.7061C168.961 77.9814 169.093 78.2012 169.257 78.3652C169.427 78.5234 169.614 78.6348 169.819 78.6992C170.03 78.7637 170.247 78.7959 170.47 78.7959C171.161 78.7959 171.709 78.6641 172.113 78.4004C172.518 78.1309 172.808 77.7705 172.984 77.3193C173.165 76.8623 173.256 76.3555 173.256 75.7988ZM180.308 71.9844V80H178.682V70.4902H180.264L180.308 71.9844ZM183.278 70.4375L183.27 71.9492C183.135 71.9199 183.006 71.9023 182.883 71.8965C182.766 71.8848 182.631 71.8789 182.479 71.8789C182.104 71.8789 181.772 71.9375 181.485 72.0547C181.198 72.1719 180.955 72.3359 180.756 72.5469C180.557 72.7578 180.398 73.0098 180.281 73.3027C180.17 73.5898 180.097 73.9062 180.062 74.252L179.605 74.5156C179.605 73.9414 179.66 73.4023 179.772 72.8984C179.889 72.3945 180.067 71.9492 180.308 71.5625C180.548 71.1699 180.853 70.8652 181.222 70.6484C181.597 70.4258 182.042 70.3145 182.558 70.3145C182.675 70.3145 182.81 70.3291 182.962 70.3584C183.114 70.3818 183.22 70.4082 183.278 70.4375ZM196.468 70.4902V71.7383H191.326V70.4902H196.468ZM193.066 68.1787H194.692V77.6445C194.692 77.9668 194.742 78.21 194.842 78.374C194.941 78.5381 195.07 78.6465 195.228 78.6992C195.387 78.752 195.556 78.7783 195.738 78.7783C195.873 78.7783 196.013 78.7666 196.16 78.7432C196.312 78.7139 196.427 78.6904 196.503 78.6729L196.512 80C196.383 80.041 196.213 80.0791 196.002 80.1143C195.797 80.1553 195.548 80.1758 195.255 80.1758C194.856 80.1758 194.49 80.0967 194.156 79.9385C193.822 79.7803 193.555 79.5166 193.356 79.1475C193.163 78.7725 193.066 78.2686 193.066 77.6357V68.1787ZM201.621 71.9844V80H199.995V70.4902H201.577L201.621 71.9844ZM204.591 70.4375L204.583 71.9492C204.448 71.9199 204.319 71.9023 204.196 71.8965C204.079 71.8848 203.944 71.8789 203.792 71.8789C203.417 71.8789 203.086 71.9375 202.799 72.0547C202.511 72.1719 202.268 72.3359 202.069 72.5469C201.87 72.7578 201.712 73.0098 201.594 73.3027C201.483 73.5898 201.41 73.9062 201.375 74.252L200.918 74.5156C200.918 73.9414 200.973 73.4023 201.085 72.8984C201.202 72.3945 201.381 71.9492 201.621 71.5625C201.861 71.1699 202.166 70.8652 202.535 70.6484C202.91 70.4258 203.355 70.3145 203.871 70.3145C203.988 70.3145 204.123 70.3291 204.275 70.3584C204.427 70.3818 204.533 70.4082 204.591 70.4375ZM207.108 75.3506V75.1484C207.108 74.4629 207.208 73.8271 207.407 73.2412C207.606 72.6494 207.893 72.1367 208.268 71.7031C208.643 71.2637 209.097 70.9238 209.63 70.6836C210.164 70.4375 210.761 70.3145 211.423 70.3145C212.091 70.3145 212.692 70.4375 213.225 70.6836C213.764 70.9238 214.221 71.2637 214.596 71.7031C214.977 72.1367 215.267 72.6494 215.466 73.2412C215.666 73.8271 215.765 74.4629 215.765 75.1484V75.3506C215.765 76.0361 215.666 76.6719 215.466 77.2578C215.267 77.8438 214.977 78.3564 214.596 78.7959C214.221 79.2295 213.767 79.5693 213.234 79.8154C212.707 80.0557 212.109 80.1758 211.441 80.1758C210.773 80.1758 210.172 80.0557 209.639 79.8154C209.106 79.5693 208.649 79.2295 208.268 78.7959C207.893 78.3564 207.606 77.8438 207.407 77.2578C207.208 76.6719 207.108 76.0361 207.108 75.3506ZM208.734 75.1484V75.3506C208.734 75.8252 208.79 76.2734 208.901 76.6953C209.012 77.1113 209.179 77.4805 209.402 77.8027C209.63 78.125 209.915 78.3799 210.254 78.5674C210.594 78.749 210.99 78.8398 211.441 78.8398C211.886 78.8398 212.276 78.749 212.61 78.5674C212.95 78.3799 213.231 78.125 213.454 77.8027C213.676 77.4805 213.843 77.1113 213.955 76.6953C214.072 76.2734 214.13 75.8252 214.13 75.3506V75.1484C214.13 74.6797 214.072 74.2373 213.955 73.8213C213.843 73.3994 213.673 73.0273 213.445 72.7051C213.222 72.377 212.941 72.1191 212.601 71.9316C212.267 71.7441 211.875 71.6504 211.423 71.6504C210.978 71.6504 210.586 71.7441 210.246 71.9316C209.912 72.1191 209.63 72.377 209.402 72.7051C209.179 73.0273 209.012 73.3994 208.901 73.8213C208.79 74.2373 208.734 74.6797 208.734 75.1484ZM222.175 78.5322L224.777 70.4902H226.438L223.019 80H221.929L222.175 78.5322ZM220.004 70.4902L222.685 78.5762L222.87 80H221.78L218.334 70.4902H220.004ZM233.446 80.1758C232.784 80.1758 232.183 80.0645 231.644 79.8418C231.111 79.6133 230.651 79.2939 230.264 78.8838C229.883 78.4736 229.59 77.9873 229.385 77.4248C229.18 76.8623 229.077 76.2471 229.077 75.5791V75.21C229.077 74.4365 229.192 73.748 229.42 73.1445C229.649 72.5352 229.959 72.0195 230.352 71.5977C230.744 71.1758 231.19 70.8564 231.688 70.6396C232.186 70.4229 232.701 70.3145 233.235 70.3145C233.914 70.3145 234.5 70.4316 234.992 70.666C235.491 70.9004 235.898 71.2285 236.214 71.6504C236.531 72.0664 236.765 72.5586 236.917 73.127C237.07 73.6895 237.146 74.3047 237.146 74.9727V75.7021H230.044V74.375H235.52V74.252C235.496 73.8301 235.409 73.4199 235.256 73.0215C235.11 72.623 234.875 72.2949 234.553 72.0371C234.231 71.7793 233.791 71.6504 233.235 71.6504C232.866 71.6504 232.526 71.7295 232.215 71.8877C231.905 72.04 231.638 72.2686 231.415 72.5732C231.193 72.8779 231.02 73.25 230.897 73.6895C230.774 74.1289 230.712 74.6357 230.712 75.21V75.5791C230.712 76.0303 230.774 76.4551 230.897 76.8535C231.026 77.2461 231.21 77.5918 231.451 77.8906C231.697 78.1895 231.992 78.4238 232.338 78.5938C232.69 78.7637 233.088 78.8486 233.534 78.8486C234.108 78.8486 234.594 78.7314 234.992 78.4971C235.391 78.2627 235.74 77.9492 236.038 77.5566L237.023 78.3389C236.818 78.6494 236.557 78.9453 236.241 79.2266C235.924 79.5078 235.534 79.7363 235.072 79.9121C234.615 80.0879 234.073 80.1758 233.446 80.1758ZM250.731 70.4902V71.7383H245.589V70.4902H250.731ZM247.329 68.1787H248.955V77.6445C248.955 77.9668 249.005 78.21 249.105 78.374C249.204 78.5381 249.333 78.6465 249.491 78.6992C249.649 78.752 249.819 78.7783 250.001 78.7783C250.136 78.7783 250.276 78.7666 250.423 78.7432C250.575 78.7139 250.69 78.6904 250.766 78.6729L250.774 80C250.646 80.041 250.476 80.0791 250.265 80.1143C250.06 80.1553 249.811 80.1758 249.518 80.1758C249.119 80.1758 248.753 80.0967 248.419 79.9385C248.085 79.7803 247.818 79.5166 247.619 79.1475C247.426 78.7725 247.329 78.2686 247.329 77.6357V68.1787ZM255.884 66.5V80H254.258V66.5H255.884ZM255.497 74.8848L254.82 74.8584C254.826 74.208 254.923 73.6074 255.11 73.0566C255.298 72.5 255.561 72.0166 255.901 71.6064C256.241 71.1963 256.645 70.8799 257.114 70.6572C257.589 70.4287 258.113 70.3145 258.687 70.3145C259.156 70.3145 259.578 70.3789 259.953 70.5078C260.328 70.6309 260.647 70.8301 260.911 71.1055C261.181 71.3809 261.386 71.7383 261.526 72.1777C261.667 72.6113 261.737 73.1416 261.737 73.7686V80H260.102V73.751C260.102 73.2529 260.029 72.8545 259.883 72.5557C259.736 72.251 259.522 72.0312 259.241 71.8965C258.96 71.7559 258.614 71.6855 258.204 71.6855C257.8 71.6855 257.431 71.7705 257.097 71.9404C256.769 72.1104 256.484 72.3447 256.244 72.6436C256.01 72.9424 255.825 73.2852 255.69 73.6719C255.561 74.0527 255.497 74.457 255.497 74.8848ZM269.738 80.1758C269.076 80.1758 268.475 80.0645 267.936 79.8418C267.403 79.6133 266.943 79.2939 266.556 78.8838C266.176 78.4736 265.883 77.9873 265.678 77.4248C265.473 76.8623 265.37 76.2471 265.37 75.5791V75.21C265.37 74.4365 265.484 73.748 265.713 73.1445C265.941 72.5352 266.252 72.0195 266.644 71.5977C267.037 71.1758 267.482 70.8564 267.98 70.6396C268.478 70.4229 268.994 70.3145 269.527 70.3145C270.207 70.3145 270.793 70.4316 271.285 70.666C271.783 70.9004 272.19 71.2285 272.507 71.6504C272.823 72.0664 273.057 72.5586 273.21 73.127C273.362 73.6895 273.438 74.3047 273.438 74.9727V75.7021H266.337V74.375H271.812V74.252C271.789 73.8301 271.701 73.4199 271.549 73.0215C271.402 72.623 271.168 72.2949 270.846 72.0371C270.523 71.7793 270.084 71.6504 269.527 71.6504C269.158 71.6504 268.818 71.7295 268.508 71.8877C268.197 72.04 267.931 72.2686 267.708 72.5732C267.485 72.8779 267.312 73.25 267.189 73.6895C267.066 74.1289 267.005 74.6357 267.005 75.21V75.5791C267.005 76.0303 267.066 76.4551 267.189 76.8535C267.318 77.2461 267.503 77.5918 267.743 77.8906C267.989 78.1895 268.285 78.4238 268.631 78.5938C268.982 78.7637 269.381 78.8486 269.826 78.8486C270.4 78.8486 270.887 78.7314 271.285 78.4971C271.683 78.2627 272.032 77.9492 272.331 77.5566L273.315 78.3389C273.11 78.6494 272.849 78.9453 272.533 79.2266C272.217 79.5078 271.827 79.7363 271.364 79.9121C270.907 80.0879 270.365 80.1758 269.738 80.1758ZM278.583 71.9844V80H276.957V70.4902H278.539L278.583 71.9844ZM281.553 70.4375L281.545 71.9492C281.41 71.9199 281.281 71.9023 281.158 71.8965C281.041 71.8848 280.906 71.8789 280.754 71.8789C280.379 71.8789 280.048 71.9375 279.76 72.0547C279.473 72.1719 279.23 72.3359 279.031 72.5469C278.832 72.7578 278.674 73.0098 278.556 73.3027C278.445 73.5898 278.372 73.9062 278.337 74.252L277.88 74.5156C277.88 73.9414 277.935 73.4023 278.047 72.8984C278.164 72.3945 278.342 71.9492 278.583 71.5625C278.823 71.1699 279.128 70.8652 279.497 70.6484C279.872 70.4258 280.317 70.3145 280.833 70.3145C280.95 70.3145 281.085 70.3291 281.237 70.3584C281.389 70.3818 281.495 70.4082 281.553 70.4375ZM288.447 80.1758C287.785 80.1758 287.184 80.0645 286.645 79.8418C286.112 79.6133 285.652 79.2939 285.265 78.8838C284.884 78.4736 284.591 77.9873 284.386 77.4248C284.181 76.8623 284.079 76.2471 284.079 75.5791V75.21C284.079 74.4365 284.193 73.748 284.421 73.1445C284.65 72.5352 284.961 72.0195 285.353 71.5977C285.746 71.1758 286.191 70.8564 286.689 70.6396C287.187 70.4229 287.703 70.3145 288.236 70.3145C288.916 70.3145 289.502 70.4316 289.994 70.666C290.492 70.9004 290.899 71.2285 291.215 71.6504C291.532 72.0664 291.766 72.5586 291.919 73.127C292.071 73.6895 292.147 74.3047 292.147 74.9727V75.7021H285.046V74.375H290.521V74.252C290.498 73.8301 290.41 73.4199 290.257 73.0215C290.111 72.623 289.877 72.2949 289.554 72.0371C289.232 71.7793 288.793 71.6504 288.236 71.6504C287.867 71.6504 287.527 71.7295 287.216 71.8877C286.906 72.04 286.639 72.2686 286.417 72.5732C286.194 72.8779 286.021 73.25 285.898 73.6895C285.775 74.1289 285.713 74.6357 285.713 75.21V75.5791C285.713 76.0303 285.775 76.4551 285.898 76.8535C286.027 77.2461 286.212 77.5918 286.452 77.8906C286.698 78.1895 286.994 78.4238 287.339 78.5938C287.691 78.7637 288.089 78.8486 288.535 78.8486C289.109 78.8486 289.595 78.7314 289.994 78.4971C290.392 78.2627 290.741 77.9492 291.04 77.5566L292.024 78.3389C291.819 78.6494 291.558 78.9453 291.242 79.2266C290.925 79.5078 290.536 79.7363 290.073 79.9121C289.616 80.0879 289.074 80.1758 288.447 80.1758Z" fill="#3182CE"/>
</svg>
